<?xml version="1.0" encoding="utf-8"?>
<!-- Generator: Adobe Illustrator 21.0.2, SVG Export Plug-In . SVG Version: 6.00 Build 0)  -->
<svg version="1.1" id="Layer_1" xmlns="http://www.w3.org/2000/svg" xmlns:xlink="http://www.w3.org/1999/xlink" x="0px" y="0px"
	 viewBox="0 0 483.2 367" style="enable-background:new 0 0 483.2 367;" xml:space="preserve">
<style type="text/css">
	.st0{opacity:0.55;fill:#57A1D8;enable-background:new    ;}
	.st1{fill:#234B78;}
	.st2{fill:#FFFFFF;}
</style>
<title>fge</title>
<g id="Layer_2">
	<polygon class="st0" points="88.8,0 372.3,183 24.1,367 	"/>
</g>
<g id="Middle_Arrow">
	<polygon class="st0" points="134.6,0 418.1,183 69.9,367 	"/>
</g>
<g id="Right_Arrow">
	<polygon class="st0" points="175.6,0 459.1,183 110.9,367 	"/>
</g>
<g id="Layer_2_Image">
	<path class="st1" d="M339.4,248.2c-14.3,0-27.2-3.2-38.5-9.4c-11.3-6.3-20.7-15.7-27-27c-5.3-9.2-8.5-19.4-9.5-30
		c-1.7,1.2-3.5,2.3-5.4,3.2l27.3,51.2c1.5,2.9,0.4,6.6-2.5,8.1c-0.9,0.5-1.8,0.7-2.8,0.7l-26.7,0.1c-2.2,0-4.2-1.2-5.3-3.2
		l-19.6-36.5v33.7c0,3.3-2.7,6-6,6l0,0l-24.6-0.3c-3.3,0-5.9-2.7-5.9-6v-22.4c-2.6,3.7-5.5,7.2-8.7,10.4
		c-13.9,14-31.1,21.1-51.1,21.1c-20.7,0-38.3-7.4-52.3-22c-10.6-10.8-17.5-24.6-19.8-39.5H42.2v52c0,3.3-2.7,6-6,6l0,0H12.1
		c-3.3,0-6-2.7-6-6l0,0L6,110.5c0-3.3,2.7-6,6-6h63.2c3.3,0,6,2.7,6,6V123c4.6-4.5,9.7-8.4,15.2-11.6c11.1-6.5,23.7-9.9,36.5-9.8
		c19.7,0,36.9,7.2,51,21.4c3.3,3.3,6.3,6.9,9,10.8v-23.3c0-3.3,2.7-6,6-6h25.8c14.6,0,25.5,1.5,32.5,4.5c7.2,3.1,13.2,8.4,17.2,15.1
		c1.4,2.3,2.6,4.7,3.5,7.2c1.3-1.8,2.8-3.5,4.3-5.2c14.4-16.2,33.4-24.4,56.4-24.4c11.5-0.1,23,2.2,33.6,6.7
		c7.6,3.2,15.2,8.5,22.4,15.6l0.1-13.1c0-3.3,2.7-6,6-6h70.4c3.3,0,6,2.7,6,6V135c0,3.3-2.7,6-6,6h-40v10.7h39.4c3.3,0,6,2.7,6,6
		v23.6c0,3.3-2.7,6-6,6h-39.4v21.9h40c3.3,0,6,2.7,6,6v23.6c0,3.3-2.7,6-6,6h-70.4c-3.3,0-6-2.7-6-5.9l-0.1-17.2
		c-5.3,7.2-12,13.3-19.8,17.8C364.8,245.3,352.9,248.3,339.4,248.2L339.4,248.2L339.4,248.2z M338.9,137.5
		c-11.1,0-20.1,3.5-27.5,10.8c-7.2,6.8-11.2,16.3-11,26.2c-0.2,10.3,3.9,20.1,11.4,27.1c7.7,7.5,17,11.1,28.5,11.1
		c7.1,0,13.3-1.5,18.2-4.5c2.5-1.5,4.7-3.5,6.6-5.7h-26.9c-3.3,0-6-2.7-6-6v-22.3c0-3.3,2.7-6,6-6h56.3l0.1-28.6L381.1,153
		c-1.1,1.1-2.6,1.7-4.2,1.7h-0.1c-1.6,0-3.2-0.7-4.3-1.9C362.7,142.6,351.7,137.5,338.9,137.5z M63.8,151.5c1.3-3.8,2.8-7.4,4.6-11
		H43.2v11H63.8z"/>
	<path class="st2" d="M132.9,107.6c18.1,0,33.7,6.5,46.8,19.6c11.4,11.4,17.9,25,19.2,40.8v-57.5h25.8c14.1,0,24.2,1.5,30.2,4
		c6,2.6,11.1,7.1,14.5,12.8c3.7,5.9,5.5,12.8,5.5,20.8c0,0.2,0,0.4,0,0.6c2.9-6.8,6.9-13.1,11.9-18.6c13.3-14.9,30.6-22.4,51.9-22.4
		l0,0c10.7-0.1,21.4,2,31.3,6.2c8.2,3.5,16.2,9.5,24,17.9l-17.2,17c-10.9-11.5-23.5-17.2-38-17.2c-12.6,0-23.2,4.2-31.7,12.5
		c-8.3,7.9-13,19-12.8,30.5c-0.2,11.9,4.6,23.3,13.2,31.4c8.8,8.6,19.7,12.8,32.7,12.8c8.4,0,15.5-1.9,21.3-5.4s10.5-8.9,14-16.9
		h-37.5v-22.3h62.3l0.3-63.3h70.4V135h-46v22.7h45.4v23.6h-45.4v33.9h46v23.6h-70.4l-0.4-42c-1.4,5-3.5,9.9-6.1,14.4
		c-5.8,10-13.2,17.7-22.5,23s-20.1,7.9-32.5,7.9l0,0c-13.3,0-25.1-2.9-35.6-8.7c-10.4-5.7-19-14.3-24.7-24.7
		c-6-10.5-9.2-22.4-9.1-34.6c0-2.5,0.1-4.9,0.4-7.4c-0.5,0.8-1,1.6-1.5,2.3c-4,5.7-10.1,9.9-18.2,12.9L281,239l-26.7,0.1l-28.8-53.6
		h-2.1v53.6l-24.5-0.3v-56.5c-1.3,15.6-7.8,29-19,40.3c-12.8,12.9-28.4,19.3-46.8,19.3l0,0c-19.2,0-35.2-6.9-47.9-20.2
		c-11-11.1-17.6-25.8-18.8-41.3H36.2v58H12.1l-0.1-128h63.2v24h-38v23h31c1.6-5.8,3.9-11.3,6.8-16.6
		C87.1,120.4,109.1,107.7,132.9,107.6L132.9,107.6 M132.9,95.6L132.9,95.6c-13.9,0-27.5,3.6-39.5,10.7c-2.2,1.3-4.2,2.6-6.2,4
		c-0.1-6.5-5.5-11.8-12-11.8H12c-6.6,0-12,5.4-12,12l0.1,128c0,6.6,5.4,12,12,12l0,0h24.1c6.6,0,12-5.4,12-12v-46h7.9
		c3.2,14.2,10.3,27.2,20.4,37.7C91.7,246,110.7,254,133.1,254c20.9,0,39-7.2,53.8-21.4v6.2c0,6.6,5.3,11.9,11.9,12l24.5,0.3h0.1
		c6.6,0,12-5.4,12-12v-9.8l8.3,15.5c2.1,3.9,6.2,6.3,10.6,6.3h0.1l26.7-0.1c5.9,0,10.9-4.3,11.8-10.1c1.7,1.1,3.4,2.2,5.2,3.1
		c12.2,6.8,26.1,10.2,41.4,10.2c14.5,0,27.4-3.2,38.5-9.5c3.9-2.2,7.6-4.8,10.9-7.8v2c0.1,6.6,5.4,11.9,12,11.9h70.4
		c6.6,0,12-5.4,12-12l0,0v-23.6c0-6.6-5.4-12-12-12h-34v-9.9h33.4c6.6,0,12-5.4,12-12v-23.6c0-5-3.1-9.6-7.9-11.3
		c5-1.5,8.5-6.2,8.5-11.4v-24.1c0-6.6-5.4-12-12-12h-70.4c-6.6,0-12,5.3-12,11.9v0.2c-4.4-3.3-9.1-6-14.1-8.2
		c-11.4-4.8-23.6-7.2-36-7.1c-24,0-44,8.3-59.4,24.8c-4.7-7.6-11.5-13.5-19.7-17c-7.8-3.3-19.5-4.9-34.9-4.9h-25.8
		c-6.6,0-12,5.4-12,12v7C171.9,103,153.7,95.6,132.9,95.6L132.9,95.6z M330.3,205.5c-5.4-1.4-10.3-4.3-14.3-8.2
		c-6.3-5.9-9.8-14.2-9.6-22.8c-0.2-8.3,3.2-16.2,9.2-21.9c6.2-6.1,13.9-9.1,23.3-9.1c11.1,0,20.7,4.4,29.3,13.5
		c2.2,2.3,5.3,3.7,8.5,3.8h0.2c3.2,0,6.2-1.2,8.4-3.5l3.3-3.3v8.2h-50.4c-6.6,0-12,5.4-12,12v22.3
		C326.2,199.9,327.7,203.2,330.3,205.5L330.3,205.5z"/>
</g>
</svg>
