<svg id="Layer_1" data-name="Layer 1" xmlns="http://www.w3.org/2000/svg" viewBox="0 0 459.17 134.55"><defs><style>.cls-1{fill:#13110c;}</style></defs><title>Artboard 1</title><path class="cls-1" d="M459.17,27.3V3.22H388.81l-.33,63.31H326.17V89.32h37.47c-3.55,8-8.21,13.06-14,16.6s-12.89,5.3-21.32,5.3q-19.44,0-32.69-12.9A42.2,42.2,0,0,1,282.4,66.89,41.12,41.12,0,0,1,295.16,36.4q12.77-12.54,31.68-12.54,21.7,0,38,17.24l17.17-17Q370.26,11.41,358,6.18A79.08,79.08,0,0,0,326.72,0q-32,0-51.9,22.38A66,66,0,0,0,262.94,41c0-.21,0-.41,0-.62q0-12-5.48-20.81A30.87,30.87,0,0,0,243,7.06c-6-2.53-16.08-3.74-30.23-3.74H186.92V60.59c-1.34-15.8-7.87-29.45-19.24-40.88Q148.12,0,120.93,0A67,67,0,0,0,63,33.49a81.36,81.36,0,0,0-6.83,16.84h-31V26.87h38V3.32H0l.1,128H24.18v-58h30.2c1.34,16,7.61,29.4,18.81,41.11,12.72,13.29,28.7,20,47.93,20q27.54,0,46.84-19.38c11.21-11.27,17.64-24.71,19-40.34v56.44l24.52.54V78.32h2.1l28.81,53.41,26.66-.27-30.35-57c8.13-2.9,14.21-7.22,18.24-12.88.53-.74,1-1.53,1.49-2.33a72.52,72.52,0,0,0-.37,7.39,68.83,68.83,0,0,0,9.1,34.57,63.37,63.37,0,0,0,24.73,24.69q15.63,8.66,35.57,8.66,18.63,0,32.48-7.93c9.23-5.28,16.64-12.95,22.45-23a60.54,60.54,0,0,0,6.1-14.39l.36,42h70.36V107.56h-46V73.67h45.38l0-23.63H413.17V27.3Z"/></svg>