<svg xmlns="http://www.w3.org/2000/svg" viewBox="0 0 1303.72 328.48"><defs><style>.cls-1{fill:#fff;}</style></defs><title>forgetv</title><g id="FORGE"><path class="cls-1" d="M0,286.12Q0,180.43,0,74.75C7.09,74,14.16,73,21.26,72.39c13.73-1.13,27.47-2,41.21-3,2.35-.17,4.72-.09,7.07-.28,3.7-.31,7.37-.89,11.07-1,.78,0,2.32,1.29,2.33,2q.21,18.85,0,37.69a3.25,3.25,0,0,1-2.18,2.29c-7.56.56-15.13.9-22.7,1.27-8,.39-16,.74-24,1.12-1.72.08-2.76.67-2.75,2.71q.1,16.75,0,33.51c0,2.14.73,2.92,2.92,2.46a32.74,32.74,0,0,1,6-.74c8.8-.18,17.6-.21,26.39-.37,4.39-.08,5.31-1,6.25-5.11.74-3.22,1.62-6.41,2.59-9.56,7.09-23.25,19.19-43.23,38-59,16.84-14.06,36.07-21.24,58-21.16,2.52,0,5,.68,7.56.8,9.36.47,18,3.45,26.26,7.58C216,68.9,225,76.36,233,85.13a118.93,118.93,0,0,1,29.43,57.14c.48,2.29,1,4.57,1.52,6.86l.79-.07c.06-1.1.18-2.21.17-3.31,0-10.42-.14-20.83-.15-31.25,0-19.22,0-38.45-.07-57.67,0-2.79.86-3.86,3.64-3.85,2.22,0,4.44-.5,6.66-.68,9.56-.77,19.11-1.69,28.68-2.2,10.69-.57,21.43-1.26,32.11-.91,7.95.26,16.17,1,23.69,3.44,14.85,4.74,24.9,15.47,31.4,29.44a77,77,0,0,1,7.28,31.61,5.4,5.4,0,0,0,.57,1.61c.34-.1.5-.09.53-.16.44-.94.83-1.9,1.28-2.84,9.2-19.47,21.44-36.66,37.53-51.12a134.74,134.74,0,0,1,60.15-31.21A180.18,180.18,0,0,1,527,25.82a176.53,176.53,0,0,1,28.3.26,141.58,141.58,0,0,1,24.36,4.82c8.39,2.31,16.85,4.85,24.66,8.59,15.37,7.36,28.62,17.9,40.65,30,1.64,1.65,1.4,2.71-.12,4.24q-18.17,18.25-36.21,36.62c-1.42,1.45-2.39,1.52-4,.09-5-4.48-10-9.08-15.42-13.05A95.45,95.45,0,0,0,548,79.74c-8.25-1.37-16.55-2.44-24.89-1.18-8,1.21-16.18,2-23.87,4.39-14.56,4.45-26.88,12.78-37.51,23.8-15.48,16-24.33,35-26.08,57.15-1.2,15.19.48,30.07,6.39,44.34a96.22,96.22,0,0,0,28.47,37.86c17.65,14.52,38.54,19.67,60.84,20.39,2.52.08,5.06-.65,7.61-.8a74.36,74.36,0,0,0,32.38-9.25c10.92-6.07,19.14-15,25.89-25.35,2.17-3.33,3.85-7,6.09-11.09-2-.13-3.18-.26-4.31-.26q-22.88,0-45.75,0c-8.91,0-17.83,0-26.74,0-2.3,0-3.27-.68-3.25-3.13.08-14.82,0-29.64.11-44.46a3.3,3.3,0,0,1,1.56-2.55,15,15,0,0,1,5-.86c21.74-.44,43.47-.91,65.21-1.19,18-.23,36.07-.21,54.1-.37,2.76,0,5.54-.8,8.27-.64,3.65.22,3.56-1.82,3.56-4.42q-.07-67.82,0-135.64A6.73,6.73,0,0,1,661.2,24c.36-.81,1.16-1.89,1.89-2,4.12-.57,8.26-.93,12.41-1.25,8.41-.65,16.84-1.21,25.25-1.85,9-.69,18-1.44,27.06-2.16l24.92-2c8.07-.66,16.13-1.36,24.2-2,5.75-.45,11.51-.79,17.27-1.22q13-1,25.9-2c1.57-.13,3.11-.69,4.67-.72,4.86-.1,9.73,0,14.77,0,0,13.9,0,27.64,0,41.37,0,4.94,0,9.88,0,14.82,0,1.51-.11,2.69-2.15,2.79-5.33.28-10.64.83-16,1.11-8.54.44-17.09.73-25.63,1.11-3.74.17-7.48.39-11.22.63-11.61.75-23.21,1.6-34.82,2.27-8.54.49-17.1.79-25.65,1.14-2.48.1-3.77.79-3.74,3.79.17,15.46.14,30.93,0,46.39,0,2.72.77,3.53,3.43,3.41q16.51-.77,33-1.27c15.74-.46,31.49-.81,47.23-1.21.64,0,1.28-.11,1.93-.13,10.16-.34,20.31-.67,30.47-1,1.84-.07,3.09.2,3.09,2.54-.05,17.83,0,35.66-.12,53.48a3.21,3.21,0,0,1-2.16,2.24c-4.68.43-9.38.69-14.08.74q-26.89.29-53.78.4c-15,.06-30.07.1-45.1-.07-3.1,0-4,.76-4,3.9q.2,35.92,0,71.85c0,2.92.87,3.54,3.62,3.57,16.81.21,33.63.65,50.44,1,20.58.38,41.17.76,61.76,1,2.88,0,4,.73,4,3.78-.12,17.61,0,35.23-.07,52.84,0,1.12-.22,2.25-.38,3.83-7.35-.54-14.35-1.14-21.36-1.56-8.74-.52-17.48-.91-26.23-1.33q-12.48-.59-25-1.12c-8.56-.36-17.12-.63-25.67-1-12.49-.57-25-1.25-37.47-1.8-12.94-.57-25.87-1.16-38.82-1.45-3.26-.07-4.18-.93-4.16-4.19.14-27.71.11-55.41.11-83.12,0-1-.18-2-.28-2.93a2.16,2.16,0,0,0-1.43,1.2c-1.56,3.85-2.91,7.81-4.68,11.56a151.31,151.31,0,0,1-26,38.73,119.93,119.93,0,0,1-26.52,21.6,127.88,127.88,0,0,1-32.64,13.67c-10.52,2.82-21.21,3.59-31.91,4.46-4.42.36-8.93-.66-13.4-.71-14.8-.19-29-3.22-43-7.87A129.08,129.08,0,0,1,438,284.67c-15.64-13.3-27.23-29.53-35.8-48.24a150.77,150.77,0,0,1-13.75-62.74c0-3,0-6,0-9a22.7,22.7,0,0,0-.63-3.17C379.49,174.9,368,183.14,354.42,189l55.66,115.95c-1.83,0-3,0-4.12,0-7.89-.35-15.78-.79-23.67-1.08-5.79-.21-11.58-.21-17.38-.38-3-.09-5.4-1-6.82-4.17-4.28-9.55-8.86-19-13.28-28.45q-11.1-23.83-22.15-47.69c-4.06-8.72-8.25-17.37-12.24-26.12-1-2.28-2.36-2.3-4.41-1.48,0,.64,0,1.16,0,1.69q0,49.46,0,98.91c0,.75.27,1.67-.06,2.22-.54.89-1.46,2.16-2.24,2.17-2.3,0-4.61-.63-6.92-.73-9.63-.4-19.25-.76-28.89-1-2.25-.05-2.94-.82-2.94-3,0-10.95-.22-21.9-.23-32.85,0-18.36.1-36.73.14-55.09,0-1.15-.18-2.3-.27-3.46-.84.37-1,.72-1.14,1.09-2.33,8.75-3.84,17.82-7.15,26.18A119.15,119.15,0,0,1,221.81,280a88.44,88.44,0,0,1-32.21,17.2c-9.53,2.81-19.26,2.91-29,2.53a78.19,78.19,0,0,1-32.79-8.89c-14.61-7.48-26.09-18.62-35.18-32.16-12.91-19.23-21.1-40.2-22.45-63.55-.15-2.65-1.08-4.26-4.32-4.2-10.31.19-20.62.16-30.93,0-2.82,0-3.65.78-3.63,3.64.12,21.59.06,43.17.06,64.76q0,12.73,0,25.45c0,1.42.21,3-1.93,2.91C19.62,287.18,9.81,286.64,0,286.12Z"/></g><g id="TV"><path class="cls-1" d="M915.06,0c5.28.5,10.55,1.11,15.84,1.49Q961.47,3.7,992,5.78c11.21.77,22.44,1.42,33.65,2.17q33,2.21,66,4.47,28.18,1.93,56.37,3.9,33,2.26,66,4.48,28,1.92,56,3.9l33.65,2.38V296.53c-5.3.46-10.8,1-16.31,1.41-21,1.67-42,3.28-63.06,5-22.51,1.83-45,3.78-67.51,5.6-20.16,1.63-40.32,3.15-60.49,4.74q-27.83,2.19-55.65,4.44-24.13,1.94-48.26,3.94-29.88,2.46-59.77,5c-6.05.52-12.07,1.65-18.13,1.84-5.32.17-10.67-.58-16-.92l-22.19-1.42c0-1.66,0-2.93,0-4.2q0-40.59,0-81.19-.19-117.08-.44-234.16c0-4.43,0-4.32,4.38-4.51,10.27-.46,20.54-1,30.81-1.57.26,0,.5-.32.75-.48Zm21.2,293.45,340.65-23.21V50.93L936.26,32.72Z"/><path class="cls-1" d="M1054.09,146.84V274.14l-58.57,6V147.65h-35V109.17h34.71V47.05l58.64,3.61v59.58c1.33.07,2.35.16,3.38.18,20.83.38,41.65.78,62.48,1.06a4.49,4.49,0,0,1,4.48,2.66q22.39,40,44.94,79.88c.88,1.57,1.81,3.11,3,5.12,3-5.61,5.78-10.88,8.57-16.15l35.51-67.06c.75-1.41,1.28-2.68,3.46-2.62,13.85.35,27.7.5,41.55.72a6.16,6.16,0,0,1,1.17.32c-3.28,6.5-6.49,12.88-9.73,19.25q-31.5,61.88-63,123.77c-1.21,2.39-2.51,3.78-5.38,4-8.87.71-17.72,1.79-26.59,2.5-.94.07-2.36-1.14-2.94-2.13q-15.53-26.31-30.89-52.73-17.44-29.85-34.82-59.74a4.39,4.39,0,0,0-4.52-2.49C1074.52,146.92,1064.55,146.84,1054.09,146.84Z"/></g></svg>