<?xml version="1.0" encoding="utf-8"?>
<!-- Generator: Adobe Illustrator 21.0.0, SVG Export Plug-In . SVG Version: 6.00 Build 0)  -->
<svg version="1.1" id="Layer_1" xmlns="http://www.w3.org/2000/svg" xmlns:xlink="http://www.w3.org/1999/xlink" x="0px" y="0px"
	 viewBox="0 0 459.2 134.6" style="enable-background:new 0 0 459.2 134.6;" xml:space="preserve">
<style type="text/css">
	.st0{fill:#FFFFFF;}
</style>
<title>Artboard 1</title>
<path class="st0" d="M459.2,27.3V3.2h-70.4l-0.3,63.3h-62.3v22.8h37.5c-3.5,8-8.2,13.1-14,16.6s-12.9,5.3-21.3,5.3
	c-13,0-23.9-4.3-32.7-12.9c-8.6-8.1-13.4-19.6-13.2-31.4c-0.2-11.5,4.4-22.6,12.8-30.5c8.5-8.4,19.1-12.5,31.7-12.5
	c14.5,0,27.1,5.7,38,17.2l17.2-17c-7.8-8.5-15.8-14.4-24-17.9C348.1,2,337.5-0.1,326.7,0c-21.3,0-38.6,7.5-51.9,22.4
	c-5,5.5-9,11.8-11.9,18.6c0-0.2,0-0.4,0-0.6c0-8-1.8-14.9-5.5-20.8C254.1,14,249,9.6,243,7.1c-6-2.5-16.1-3.7-30.2-3.7h-25.9v57.3
	c-1.3-15.8-7.9-29.5-19.2-40.9C154.6,6.6,139.1,0,120.9,0C97,0,75,12.8,63,33.5c-2.9,5.3-5.2,11-6.8,16.8h-31V26.9h38V3.3H0l0.1,128
	h24.1v-58h30.2c1.3,16,7.6,29.4,18.8,41.1c12.7,13.3,28.7,20,47.9,20c18.4,0,34-6.5,46.8-19.4c11.2-11.3,17.6-24.7,19-40.3v56.4
	l24.5,0.5V78.3h2.1l28.8,53.4l26.7-0.3l-30.4-57c8.1-2.9,14.2-7.2,18.2-12.9c0.5-0.7,1-1.5,1.5-2.3c-0.2,2.5-0.4,4.9-0.4,7.4
	c-0.1,12.1,3.1,24,9.1,34.6c5.8,10.4,14.3,18.9,24.7,24.7c10.4,5.8,22.3,8.7,35.6,8.7c12.4,0,23.2-2.6,32.5-7.9
	c9.2-5.3,16.6-12.9,22.5-23c2.6-4.5,4.7-9.3,6.1-14.4l0.4,42h70.4v-23.7h-46V73.7h45.4V50h-45.4V27.3H459.2z"/>
</svg>
