<svg id="Layer_1" data-name="Layer 1" xmlns="http://www.w3.org/2000/svg" viewBox="0 0 324.72 398.65"><defs><style>.cls-1{fill:#fff;}</style></defs><title>Polls logo</title><path class="cls-1" d="M45.2,6.16H16.87C6.13,6.16,0,13.24,0,23V303.35c0,9.11,3.2,15.85,9.7,20.79l35.49,26.4Z"/><path class="cls-1" d="M223.91,53.43V172.2l18.75,12.47c7.16,4.68,7.55,9.7,7.55,21.27v47.28c0,11.59-.49,16.58-7.55,21.29l-18.75,12.32V391.94l2.54-1.92,40.6-30.2V53.43Z"/><path class="cls-1" d="M307.87,0H279.52V350.55l35.5-26.4c6.53-4.94,9.7-11.68,9.7-20.79V16.87C324.72,7.07,318.59,0,307.87,0Z"/><path class="cls-1" d="M211.74,6.16h-26.3A16.43,16.43,0,0,0,168.6,23V124c0,6.35.8,11.89,6.33,15.67l36.81,24.48Z"/><path class="cls-1" d="M211.74,294.82,176.46,318c-8.24,5.53-7.86,9.69-7.86,17.67v50.65c0,7.63,3.24,12.33,12.32,12.33h25.25a26.88,26.88,0,0,0,5.57-.56Z"/><path class="cls-1" d="M148.27,263.59,113,240.39V398.1a26.88,26.88,0,0,0,5.57.56h25.25c9.07,0,12.32-4.7,12.32-12.33V281.24C156.13,273.27,156.5,269.1,148.27,263.59Z"/><path class="cls-1" d="M113,34.93v74.74L149.8,85.18c5.53-3.76,6.33-9.3,6.33-15.65V34.93Z"/><path class="cls-1" d="M82.08,130.23l18.74-12.46V70.38H57.37V359.6L98.27,390l2.54,1.92V232.39L82.08,220.07c-7.07-4.7-7.55-9.7-7.55-21.28V151.52C74.53,139.94,74.91,134.91,82.08,130.23Z"/></svg>