<?xml version="1.0" encoding="utf-8"?>
<!-- Generator: Adobe Illustrator 21.0.2, SVG Export Plug-In . SVG Version: 6.00 Build 0)  -->
<svg version="1.1" id="Layer_1" xmlns="http://www.w3.org/2000/svg" xmlns:xlink="http://www.w3.org/1999/xlink" x="0px" y="0px"
	 viewBox="0 0 877.4 819.3" style="enable-background:new 0 0 877.4 819.3;" xml:space="preserve">
<style type="text/css">
	.st0{fill:#333333;}
	.st1{fill:#D80000;}
</style>
<title>radio</title>
<g id="cawtRA.tif">
	<g>
		<path class="st0" d="M785.3,0h11.5c0.4,0.2,0.7,0.3,1.1,0.3c9.9,0.2,19.8,0.6,29.7,0.5c8-0.2,15.6,3.1,20.8,9.1
			c3.3,3.7,6.1,7.8,8.3,12.3c4.3,8.8,6.2,18.1,6.7,27.8c0.6,12.5,1.1,25.1,1.6,37.6c0.5,12.1,1,24.1,1.5,36.2
			c0.7,17.3,1.5,34.5,2.2,51.8c0.5,12.9,1,25.7,1.6,38.6c0.7,16.8,1.5,33.5,2.2,50.3c0.6,13.6,1.1,27.2,1.7,40.7
			c0.9,23.6,1.9,47.3,2.8,70.9c0.1,0.9,0.2,1.7,0.4,2.6v18.7c-0.3,2.1-0.6,4.2-1,6.4c-1.6,8.8-4.9,17.3-9.9,24.8
			c-5.4,8.2-13.1,13.4-22.1,16.9c-27.3,10.6-54.5,21.2-81.8,31.8c-26.9,10.5-53.7,21.1-80.6,31.6c-70.6,27.5-141.2,55-211.8,82.5
			c-8.5,3.3-17,6.6-25.5,9.9c-6.1,2.5-12.8,3.3-19.3,2.5c-6.2-0.9-12.3-1.9-18.5-3c-10.8-1.8-21.6-3.8-32.4-5.5
			c-3.4-0.5-6.7-1.7-9.7-3.4c-2.4-1.4-4.6-2.9-6.9-4.3c-0.5-0.3-1.1-0.7-1.2-1.1c-0.3-1.4-1.5-2-2.3-2.9c-1.9-2-3.7-3.9-5.4-6.1
			c-5.2-6.6-8.3-14.2-10.2-22.3c-1.6-6.8-2.7-13.8-3.9-20.7c-1.6-9.7-3.1-19.4-4.7-29.1c-1.8-10.6-3.7-21.3-5.5-31.9
			c-0.6-3.4-1.1-6.8-1.8-10.1c-0.4-2.2-1.3-2.8-3.4-2.3c-2.5,0.6-5,1.3-7.4,2c-3.5,1.1-6.9,2.5-10.4,3.6
			c-43.5,13.9-87.1,27.8-130.6,41.7c-9.4,3-18.9,6.1-28.4,8.8c-8.7,2.7-18,2.9-26.8,0.7c-4.1-1.1-8.1-2.3-12.2-3.5
			c-10.5-3.2-20.9-6.4-31.4-9.6c-5-1.5-9.9-3-14.4-5.8c-4-2.3-7.7-5.1-11.1-8.3c-3.5-3.5-6.5-7.5-8.9-11.8c-1.8-3.2-3.4-6.5-4.8-9.9
			c-1.4-3.2-2.6-6.5-3.4-9.9c-1-4.5-1.5-9.1-2-13.7c-1-7.9-1.9-15.7-2.8-23.6c-0.9-7.6-1.8-15.2-2.7-22.9c-0.8-6.7-1.5-13.4-2.2-20
			c-0.5-4.9-1-9.9-1.6-14.8c-1-8.7-2.1-17.5-3.1-26.2c-1-9-2-18-3.1-26.9c-1.2-10.7-2.4-21.4-3.6-32.2c-1.2-10.5-2.3-21-3.6-31.4
			c-1.8-14.2-3.5-28.3-4.4-42.5c-0.2-1.7-0.5-3.5-0.9-5.2v-5.8c0.3-0.6,0.5-1.3,0.7-2c0.8-3.9,1.6-7.8,2.3-11.7
			c1.2-6.7,3.9-12.8,7-18.8c11.4-22.2,29.2-35.7,54.1-39.6c12.5-2,24.9-4.2,37.3-6.3c15.4-2.7,30.9-5.3,46.3-7.9s31-5.2,46.6-7.9
			c15.8-2.7,31.7-5.3,47.5-8c15.4-2.6,30.8-5.2,46.3-7.9c15.4-2.6,30.7-5.3,46.1-7.9c16.5-2.8,33.1-5.6,49.6-8.3
			c15.7-2.7,31.3-5.3,47-8c15.3-2.6,30.7-5.3,46.1-7.9c16.4-2.8,32.8-5.6,49.2-8.4c17.7-3,35.3-5.9,53-8.8c17.3-2.9,34.5-6,51.8-8.9
			s34.7-5.9,52-8.9c16.9-2.9,33.7-5.7,50.6-8.5c9.4-1.6,18.8-3,28.1-4.8c7.4-1.6,15-2.6,22.6-2.9C784.6,0.3,784.9,0.2,785.3,0z
			 M731.3,215.3c0.1,0.5,0.2,0.9,0.2,1.4s0,1-0.1,1.4c-2.3,9.7-5.5,19-11,27.5c-5.3,8.1-12.2,14.4-21.2,18.1
			c-14.8,6.1-29,5.2-42.5-3.9c-4.8-3.2-9-7.2-12.4-11.9c-11.4-15.4-17-32.8-18.4-51.7c-0.7-10.6-0.1-21.3,1.9-31.8
			c2.4-12.8,6.8-24.8,14.2-35.6c4.9-7.1,10.4-13.6,17.9-18.2c15-9.1,30.5-10.4,46.2-1.9c6.4,3.6,12.1,8.2,16.8,13.8
			c2.8,3.1,3.8,2.9,5.7-0.7c3.5-6.9,7-13.9,10.4-20.8c1.3-2.6,2.7-5.1,3.9-7.7c1.1-1.9,0.8-4.4-0.7-6c-6-6.8-12.1-13.7-19.8-18.7
			c-0.5-0.3-0.9-0.7-1.2-1.1c-2.1-2.5-4.9-4.2-8-5c-2.5-0.7-4.9-1.4-7.4-2.1c-10.3-3.2-21.3-4-32-2.4c-13.9,2.2-26,8.2-37,16.7
			c-7.2,5.6-12.7,12.5-18,19.8c-1.8,2.6-3.2,5.6-5.8,7.5c-0.3,0.3-0.5,0.6-0.7,1c-5.9,10.3-10.6,21.2-13.9,32.5
			c-0.3,0.7-0.7,1.4-1.1,2.1c-1.3-1-1.4-2.2-1.7-3.4c-3.4-13.5-9.4-25.6-19.9-35.1c-4.5-4.2-10-7.3-16-8.8
			c-7.8-1.7-15.8-1.9-23.6-0.8c-15.6,2-31.1,4.8-46.5,8c-2.2,0.4-4.4,0.9-6.6,1.4c-2.4,0.6-3.1,1.6-3.1,4.1c0,1.4,0.1,2.7,0.3,4.1
			c0.9,8.5,1.7,17,2.6,25.5c0.7,7.1,1.5,14.1,2.2,21.2c0.8,7.8,1.7,15.6,2.5,23.3c0.2,1.4,0.1,2.8-0.1,4.2c-0.5-1-0.8-1.5-1-2
			c-5.3-11.7-11.6-22.8-20-32.6c-2.2-2.4-4.5-4.7-7-6.9c-1.8-1.7-3.9-3.1-5.8-4.6c-3.2-2.6-6.3-5.4-9.6-7.9
			c-16.6-12.3-35.1-17.9-55.8-16.2c-13.2,1.1-26,4.9-37.6,11.4c-0.7,0.5-1.5,0.9-2.4,1.1c-2,0.4-3.8,1.2-5.4,2.5
			c-11.4,8-21.4,17.8-29.9,28.8c-6.9,9.1-12.6,18.9-17,29.4c-0.4,0.9-0.7,2-2.2,2.2c-0.4-1-0.7-2.1-0.9-3.1
			c-0.4-2.8-0.8-5.7-1.1-8.5c-1.4-11.1-2.8-22.2-4.1-33.2c-0.6-4.7-1.5-5.5-6.2-4.7c-2.5,0.4-5,0.9-7.5,1.4l-39.3,7.3l-40.5,7.6
			c-7.4,1.4-14.9,2.8-22.4,4.2c-3.6,0.7-4.3,1.7-3.8,5.3c0.7,4.9,1.3,9.8,2,14.7c1.2,8.9,2.4,17.9,3.6,26.8
			c1.4,10.4,2.7,20.7,4.1,31.1c0.8,5.7,1.5,11.4,2.4,17.1c0.5,2.9,1.4,5.7,1.9,8.6c1.1,7.6,2.1,15.2,3.1,22.8
			c1.5,11.4,3.1,22.8,4.6,34.2c1.4,10.1,2.8,20.3,4.1,30.4c0.7,5.9,2,11.7,1.6,17.6c0,0.6,0,1.3,0.1,1.9c0.9,6.4,1.7,12.8,2.6,19.2
			c0.9,6.6,1.9,13.3,2.8,20c0.8,5.7,1.4,11.4,2.3,17.1c0.4,2.6,1.3,5.1,1.8,7.7c0.7,4.1,1.1,8.2,1.6,12.4s1.1,4.4,4.9,3.4l0.5-0.1
			c11.6-3.5,23.3-6.9,34.9-10.4c4.3-1.3,4.8-2,4.2-6.6c-1.3-10.1-2.6-20.1-3.9-30.2c-1.7-13-3.4-26-5.1-39
			c-1.8-13.6-3.5-27.1-5.2-40.7c-0.3-2.5-0.5-5.1-0.7-7.6c-0.3-2.2,1.1-4.2,3.2-4.8c1.2-0.4,2.4-0.8,3.7-1.1
			c12.2-3.1,24.5-6.1,36.8-9.2c4.2-1,5.1-2.1,6.7,4c1.4,5.5,2.8,11,4.6,16.4c8,24.1,21.4,44.6,41.2,60.7
			c19.3,15.7,41.1,22.7,65.9,18.8c21.5-3.4,40.3-12.6,55.9-28.1c10.5-10.6,19.3-22.7,26-36c8.9-16.8,14.8-35,17.5-53.8
			c0.1-1,0.1-2.2,1.4-2.9c0.3,0.3,0.4,0.7,0.6,1.1c0.3,2,0.6,3.9,0.8,5.9c1.2,11.2,2.4,22.4,3.6,33.6c1.2,11.4,2.4,22.7,3.5,34.1
			c0.2,1.6,0.4,3.2,0.7,4.7c0.1,1,0.9,1.7,1.9,1.7c0.1,0,0.2,0,0.3,0c0.5,0,1.1-0.1,1.6-0.2c9.3-2.7,18.6-5.4,27.8-8.2
			c2.7-0.8,3.6-2.2,3.6-5c0-1-0.1-2.1-0.2-3.1c-0.4-3.7-0.8-7.5-1.2-11.2c-1-9.8-2-19.6-3.1-29.3c-1-9.9-2.1-19.9-3.2-29.8
			c-0.9-8.6-1.7-17.2-2.6-25.8c-0.1-0.6-0.3-1.2-0.2-1.6c0.2-0.7,0.7-1.3,1.3-1.7c0.7-0.1,1.4,0.1,1.8,0.6c0.7,0.9,1.4,1.9,1.9,3
			c8.2,15.1,16.4,30.2,24.6,45.4c7.2,13.4,14.4,26.7,21.6,40.1c1.9,3.5,3.5,4.2,7.2,3.1c9-2.7,17.9-5.4,26.8-8.1
			c0.8-0.3,1.7-0.6,2.5-0.9s1.3-1.1,1-2c0-0.1,0-0.1-0.1-0.2c-0.4-1-0.9-2.1-1.4-3c-7.1-13.5-14.3-27-21.4-40.5
			c-8.5-16-17.1-32-25.6-48c-2-3.8-1.7-5.4,1.5-8.1c6.5-5.6,11.8-12.5,15.4-20.3c0.4-0.8,0.7-1.8,2.1-1.8c0.2,0.5,0.4,1,0.5,1.5
			c0.3,2.6,0.6,5.2,0.9,7.9c1.6,13.9,4.9,27.6,9.9,40.7c6.2,16.5,15.2,31.3,28.2,43.5c7,6.8,15.5,11.9,24.9,14.9
			c9.3,2.9,18.7,3,28.3,1.8c13-1.5,25.4-6.7,35.6-14.9c11-8.8,19.3-19.8,25.7-32.2c5.9-11.5,9.8-23.8,12.8-36.3
			c0.4-1.5,0.9-3,1.4-4.5h0.7c0.3,1.3,0.6,2.6,0.8,3.9c0.7,7.3,1.3,14.7,1.9,22c0.7,8.7,1.4,17.4,2.1,26c0.1,1.3,0.2,2.5,0.5,3.8
			c0.3,1.6,0.9,2.1,2.5,1.9c1.2-0.2,2.4-0.4,3.5-0.8l53.1-15.8c5.1-1.5,10.3-3,15.4-4.6c3.4-1,4.3-2.4,4.1-6
			c-0.1-1.4-0.3-2.9-0.4-4.3c-0.7-8.3-1.3-16.6-2-24.9c-0.1-1.7-0.3-3.3-0.6-5s-1.1-2.1-2.8-1.8c-1.2,0.2-2.3,0.5-3.5,0.8l-39.5,11
			c-4.2,1.2-5.1,0.5-5.4-3.9c-0.5-6.6-1-13.2-1.5-19.8c-0.8-9.8-1.8-19.6-2.6-29.4c-0.3-3.6,0.8-5,4.2-5.9c0.3-0.1,0.6-0.1,0.9-0.2
			l40.7-10.1c0.8-0.2,1.7-0.5,2.5-0.8c1.3-0.3,2.2-1.5,2.1-2.9c0-1.2,0-2.4-0.1-3.6c-0.5-6.4-1-12.7-1.5-19.1
			c-0.3-4.1-0.6-8.3-1-12.4c-0.3-2.9-0.8-3.3-3.7-2.9c-0.5,0.1-1.1,0.2-1.6,0.3l-38.1,8.6c-1.7,0.4-3.4,0.8-5.2,1.1
			c-2.3,0.4-2.9-0.1-3.2-2.3c-0.2-1.2-0.3-2.4-0.4-3.6c-0.6-7.4-1.2-14.8-1.8-22.2c-0.2-3.2-0.5-6.4-0.6-9.6c-0.1-2,0.3-2.5,2.2-3.1
			c0.5-0.1,0.9-0.3,1.4-0.4l30.3-6.4c4.5-0.9,9.1-1.8,13.6-2.8c2.6-0.6,3.4-1.8,3.4-4.4c0-0.8-0.1-1.6-0.1-2.4
			c-0.5-5.6-0.9-11.1-1.4-16.7c-0.5-5.4-0.9-10.8-1.3-16.2c-0.2-2.7-1-3.2-3.6-2.9c-2.1,0.3-4.1,0.7-6.1,1.1l-61,11.4
			c-2.4,0.5-4.9,0.9-7.3,1.5c-2,0.5-2.5,1.2-2.6,3.2c0,0.6,0,1.1,0,1.7c0.5,5.8,1,11.6,1.5,17.4c0.9,10.4,1.8,20.9,2.7,31.3
			c0.7,8.4,1.4,16.7,2.1,25.1c0.9,10.7,1.9,21.3,2.8,32c0.4,4.5,0.1,4.9-4.3,5.9l-60.8,14.8c-1.5,0.4-3,0.6-4.4,1.1
			c-2.3,0.7-3.1,1.9-3.1,4.2c0,1,0,2.1,0.1,3.1c0.8,9,1.6,18,2.5,27c0.2,2.3,0.5,4.6,0.8,6.9c0.3,1.7,0.8,2,2.5,1.8
			c0.6-0.1,1.3-0.2,1.9-0.4c12.2-3.1,24.3-6.2,36.5-9.3C728.8,215.6,730,215.5,731.3,215.3z M550,431.6c1.1,0,2.2-0.1,3.4-0.3
			c1.1-0.3,2.1-0.6,3.2-1l47.3-15.8c1.3-0.5,2.6-0.8,3.9-1.1c2.6-0.5,4.1,0.6,4.3,3.2c0.1,2,0.1,4,0,6c-0.1,1.8-1.2,3.4-2.8,4.1
			c-1.2,0.5-2.3,1-3.5,1.4c-3.4,1.2-6.8,2.3-10.2,3.5c-11.9,4-23.8,8-35.6,12.1c-7.6,2.5-12.2,7.7-13.8,15.5c-0.4,2.1-0.8,4.2-1,6.4
			c-1.4,10.2-2.9,20.4-4.2,30.6c-0.6,4.8-1.6,9.6-1.1,14.5c0.2,3.3,1,6.5,2.5,9.4c1.3,2.7,4.2,4.4,7.2,4.2c2.6-0.2,5.1-0.8,7.4-1.8
			c20.2-7.5,40.4-15.1,60.7-22.6c3.9-1.4,5.7-4,6.1-8c0.9-7.6,2-15.2,3-22.8c1.5-11.2,3.1-22.3,4.6-33.5c1.5-11,3.1-22,4.6-33
			c0.4-3.5,0.7-7,0.7-10.5c0-3.1-0.7-6.2-2.2-9c-1.1-2.6-3.8-4.1-6.6-3.8c-1.9,0.2-3.8,0.6-5.6,1.1c-6.3,1.9-12.7,4-19,6
			c-15,4.8-30,9.7-45,14.4c-3.2,1-5,3-5.2,6.4c-0.1,1.8-0.5,3.6-0.7,5.5c-0.8,5.3-1.5,10.6-2.2,15.9
			C549.9,429.6,549.9,430.6,550,431.6z M728.1,364.6c-0.2-2.9-0.8-5.8-1.8-8.5c-1.1-2.9-3.7-5-6.8-5.4c-3.3-0.5-6.3,0.3-9.4,1.3
			c-17.1,5.4-34.1,10.9-51.2,16.3c-4.4,1.4-6.5,4.2-7.1,8.6c-2.3,17.3-4.7,34.5-7.1,51.8c-2.5,18.2-5.1,36.4-7.6,54.6
			c-0.3,2.2-0.5,4.4-0.6,6.7c-0.1,1.7,0.6,2.1,2.3,1.7c0.8-0.2,1.5-0.4,2.3-0.7c21.5-8.1,43.1-16.2,64.7-24.2
			c4.3-1.5,7.7-4.9,9.1-9.2c0.6-1.7,1.1-3.5,1.4-5.3c0.7-3.9,1.2-7.9,1.7-11.9c1.5-11,3-22,4.6-33c1.4-10.1,2.7-20.1,4.1-30.2
			C727.1,373,727.5,368.8,728.1,364.6L728.1,364.6z M847.6,327h-0.4c0.1-1.4,0.1-2.9,0-4.3c-0.3-2.4-0.7-4.7-1.4-7
			c-1.2-3.6-3.4-4.9-7.2-4.5c-1.4,0.2-2.8,0.5-4.2,0.9c-14.9,4.7-29.9,9.5-44.8,14.2c-7.1,2.2-11,7.1-12,14.4
			c-1.5,11.1-3,22.2-4.5,33.3c-1.1,7.9-2.1,15.8-3.2,23.8c-1.1,8.6-2.2,17.1-3.2,25.7c-0.5,4-0.1,8,1.1,11.8
			c1.2,3.8,3.8,5.4,7.7,4.8c1.8-0.3,3.6-0.7,5.3-1.4c14.5-5.3,28.9-10.7,43.4-16c7.4-2.7,11.5-8.1,12.6-15.8
			c1.5-11,2.9-21.9,4.4-32.9c1.3-10.1,2.8-20.1,4.1-30.2C846.3,338.3,846.9,332.6,847.6,327z M539.9,409.7c0.1-2-0.5-2.5-2.4-2.2
			c-0.9,0.2-1.7,0.4-2.5,0.7l-56.6,18.2c-5.7,1.8-11.5,3.5-17.1,5.5c-10,3.5-16.2,10.5-18.6,20.8c-0.7,3-1.1,6.1-1.5,9.2
			c-2.5,17.1-4.9,34.2-7.4,51.3c-2.5,17.7-5,35.4-7.7,53.1c-0.6,4.3,0.3,4.8,4.3,3.3c5.3-2,10.6-4,16-5.9c3.2-0.9,5.6-3.8,5.9-7.1
			c1-7.1,2-14.2,3.1-21.4c1.7-11.6,3.4-23.2,5-34.9c1.3-9.2,2.5-18.4,3.8-27.5c1.2-8.2,5.6-13.8,13.6-16.4l1.6-0.5
			c17.5-5.8,35.1-11.6,52.6-17.4c2.8-0.7,4.8-3.2,4.8-6.1c0.3-4,1.1-7.9,1.6-11.9C538.9,417,539.4,413.4,539.9,409.7z M729.3,456.9
			c1.2,0.3,2.4,0.2,3.5-0.3c4.6-1.7,9.2-3.7,13.9-5.1c2.1-0.4,3.6-2.3,3.5-4.4c0.5-4.1,1.1-8.2,1.7-12.3l5.6-40.8
			c1.1-8.1,2.2-16.1,3.3-24.2c0.7-4.6,1.8-9.3,1-14c0-0.4,0-0.8,0.1-1.2c0.7-5.1,1.4-10.3,2.2-15.4c0.5-3.8-0.3-4.6-4-3.4
			c-3.3,1.1-6.5,2.2-9.8,3.1c-4.2,1.1-5.7,2.8-6.3,7.1c-2.3,17.3-4.7,34.7-7.1,52c-2.5,18.7-5.1,37.3-7.6,56
			C729.2,454.9,729.2,455.9,729.3,456.9L729.3,456.9z"/>
	</g>
	<g>
		<path class="st0" d="M127.2,680.6c-2.6-1-3.7-3.1-4.3-5.6c-1-4.1-1.5-8.4-1.4-12.6c0-1.7,0.7-3.3,1.7-4.6
			c4.9-6.4,10.7-11.9,16.1-17.7c14.1-14.9,28.1-29.8,42-44.8c0.7-0.8,1.3-1.7,1.9-2.5c-0.9-1.4-2.1-1.6-3.2-1.9
			c-11.7-3.8-23.4-7.7-35.1-11.5l-27.1-8.9c-0.7-0.3-1.5-0.5-2.3-0.7c-2.7-0.3-5-2.3-5.6-4.9c-0.6-2.1-1-4.2-1.3-6.3
			c-0.4-2.8-0.7-5.7-0.7-8.6s1.1-4,4.1-3.8c1.1,0,2.2,0.1,3.3,0.3c1.1,0.1,2.2,0.5,3.1,1.1c1.2,0.9,2.6,1.6,4.1,1.8
			c9.6,2.4,18.9,5.9,28.2,9.3c16.5,6,33.1,11.9,49.6,17.8c1.1,0.4,2.1,0.8,3.1,1.2c2.2,1,3.8,3.1,4.2,5.5c0.4,2.3,0.9,4.7,1.2,7.1
			c0.6,4-0.7,8.1-3.6,11c-19.4,21.2-38.8,42.4-58.1,63.6c-3.3,3.6-6.6,7.2-9.9,10.8c-2.1,2.2-4.1,4.7-7.5,5L127.2,680.6z"/>
	</g>
	<g>
		<path class="st0" d="M223.7,629.2c-0.1-1.8,0.5-3.6,1.7-5c16-18.9,33.3-36.5,49.9-54.9c1.5-1.7,3.1-3.3,4.5-5s1.4-2.6-0.9-3.5
			c-3.2-1.3-6.5-2.4-9.7-3.5L225,541.8c-2.3-0.8-4.5-1.7-6.8-2.5c-2.9-0.8-5-3.5-5.2-6.5c-0.3-3.2-0.9-6.3-1.1-9.5
			c0-1.6,0.2-3.2,0.6-4.7c0.1-1.1,1.2-1.9,2.3-1.8c0.1,0,0.1,0,0.2,0c3.8,0.1,7.6,0.9,11.2,2.4c4.1,1.9,8.4,3.4,12.7,5.1
			c19.1,7.4,38.1,14.9,57.3,22.1c5.5,2,8.3,5.3,8.9,11.1c0.8,5.5-1,11-4.8,15c-5.9,6.4-11.8,12.9-17.5,19.4
			c-12.2,13.8-24.4,27.8-36.6,41.6c-2.3,2.6-4.9,5.1-7.3,7.6c-0.6,0.7-1.2,1.4-1.8,2.2c-0.8,1.2-2.1,2.1-3.5,2.3
			c-2.1,0.3-4.2-0.1-6-1c-1.5-0.8-2.5-2.4-2.6-4.1C224.4,636.8,224.1,633,223.7,629.2z"/>
	</g>
	<g>
		<path class="st0" d="M223.6,212.5c0-1.4,0-2.3,0-3.2c0-3.4,0.5-4.1,3.9-4.9c3.3-0.8,6.5-1.5,9.8-2.2c16.1-3.3,32.2-6.7,48.3-10
			c1.4-0.3,2.8-0.6,4.2-0.7c1.7-0.1,2.2,0.5,2,2.1c-0.2,0.9-0.5,1.9-0.8,2.8c-3.3,9.1-5.8,18.4-7.6,27.9c-0.9,4.9-1.4,9.8-2.1,14.7
			c-0.5,3.8-1.6,4.9-5.3,5.8l-16.8,3.8c-9,2-18.1,4.1-27.1,6.1c-2.6,0.6-3.4,0-3.6-2.6c-0.8-11.7-2.9-23.3-4.6-34.9
			C223.7,215.4,223.7,213.7,223.6,212.5z"/>
	</g>
	<g>
		<path class="st0" d="M564.6,483.8c0.5-3,0.9-6,1.5-9c0.7-3.1,3-5.7,6-6.6c10.5-3.8,21.1-7.4,31.6-11.1c0.3-0.1,0.6-0.2,0.9-0.2
			c1.5-0.3,2,0,2,1.5c-0.1,1.8-0.3,3.5-0.5,5.2c-0.4,3.3-1,6.6-1.4,10c-0.3,2.4-1.9,3.7-4.1,4.5c-8.1,2.9-16.2,5.8-24.3,8.8
			c-1.9,0.7-3.8,1.3-5.7,2c-0.7,0.2-1.4,0.4-2.1,0.5c-1.5,0.4-3.1-0.5-3.5-2c0-0.2-0.1-0.4-0.1-0.5c-0.1-0.9-0.2-1.9-0.3-2.9
			L564.6,483.8z"/>
	</g>
	<g>
		<path class="st0" d="M705.6,386.8c-0.7,5.2-1.4,10.9-2.2,16.6c-1.4,10.1-2.8,20.1-4.2,30.1c-0.1,1-0.3,2.1-0.5,3.1
			c-1.1,4.6-4,7.5-8.4,9c-6.5,2.3-13.1,4.7-19.6,7.1c-2,0.7-3.9,1.5-5.8,2.1c-2.3,0.8-3.1,0-2.8-2.4c2.2-15.9,4.4-31.8,6.6-47.7
			c0.4-3.1,0.9-6.2,1.3-9.2c0.1-2,1.5-3.7,3.4-4.2c8.8-2.9,17.6-5.8,26.4-8.8c0.5-0.2,1.1-0.3,1.6-0.5c2.7-0.6,4.1,0.5,4.3,3.3
			C705.6,385.6,705.6,385.9,705.6,386.8z"/>
	</g>
	<g>
		<path class="st0" d="M827.6,347.2c-0.3,2.4-0.7,5-1,7.6c-1.6,11.9-3.2,23.8-4.7,35.6c-0.7,5.5-3.5,9.2-9,11s-11,3.9-16.5,5.8
			c-1.5,0.6-3,1-4.6,1.3c-2.5,0.4-3.6-0.4-3.9-3c-0.2-1.3-0.2-2.7,0-4.1c1.9-14.2,3.7-28.4,5.7-42.5c0.8-5.8,3.8-9.6,9.6-11.2
			c6-1.7,11.8-3.9,17.8-5.8c1.1-0.4,2.1-0.6,3.2-0.8c1.8-0.2,2.6,0.3,3,2C827.3,344.5,827.5,345.8,827.6,347.2z"/>
	</g>
</g>
<g>
	<g>
		<path class="st1" d="M289.4,663.2h85.2v29.1h-55.7v28.2h55.7v28.5h-55.7v41.1h55.7v29.2h-85.2V663.2z"/>
	</g>
	<g>
		<path class="st1" d="M385.3,663.2h33.4l32.8,50.1l32.9-50.1h33.4l-49.5,75.7l52.6,80.4h-33.4l-35.9-54.9l-35.9,54.9h-33.6
			l52.8-80.4L385.3,663.2z"/>
	</g>
	<g>
		<path class="st1" d="M523.3,663.2h86.2v29.3h-28.4v126.8H551V692.5h-27.7V663.2z"/>
	</g>
	<g>
		<path class="st1" d="M621.1,663.2h31.5c17.2,0,29.5,1.5,36.8,4.6s13.2,8.2,17.6,15.3c4.4,7.1,6.7,15.6,6.7,25.4
			c0,10.3-2.5,18.8-7.4,25.7s-12.3,12.1-22.2,15.6l37,69.4h-32.5l-35.1-66.1h-2.7v66.1h-29.7V663.2z M650.8,724.2h9.3
			c9.4,0,15.9-1.2,19.5-3.7c3.6-2.5,5.3-6.6,5.3-12.3c0-3.4-0.9-6.4-2.6-8.9c-1.8-2.5-4.1-4.3-7.1-5.4c-3-1.1-8.4-1.6-16.3-1.6h-8.1
			V724.2z"/>
	</g>
	<g>
		<path class="st1" d="M787.4,663.2h30.1l60,156.1h-30.9l-12.2-32.1h-63.7l-12.7,32.1h-30.9L787.4,663.2z M802.6,704.6l-20.9,53.6
			h41.7L802.6,704.6z"/>
	</g>
</g>
</svg>
