<svg id="Layer_1" data-name="Layer 1" xmlns="http://www.w3.org/2000/svg" viewBox="0 0 388.57 357"><defs><style>.cls-1{fill:#fff;}.cls-2{fill:#ba1449;}.cls-3{fill:#621a40;}</style></defs><title>shu</title><polygon class="cls-1" points="388.49 271.43 388.49 198.54 367.7 198.54 367.7 115.22 388.49 115.22 388.49 0 0 0 0 115.22 19.8 115.22 19.8 198.54 0 198.54 0 311.75 0.72 311.75 0.72 338.8 9.72 338.8 9.72 357 35.04 357 63.04 357 76.97 357 94.08 357 113.89 357 145.53 357 148.44 357 180.56 357 185.45 357 211.6 357 232.01 357 239.28 357 263.05 357 266.16 357 290.13 357 297.2 357 317.81 357 348.65 357 388.56 357 388.56 271.43 388.49 271.43"/><path class="cls-2" d="M360.15,226.89v56.52H199V226.89h32.79V182.37H156.68v44.51h33.79v56.52H28.35V226.89h19.8v-140H28.35V28.35H190.48V86.87H156.68v35h75.13v-35H199V28.35H360.15V86.87H339.35v140Z"/><path class="cls-3" d="M48.62,322.25v6.4H38.06v-6.4h1.8V306.17H35.42v4.28H29.07V299.78H57.54v10.68H51.18v-4.28H46.82v16.08Z"/><path class="cls-3" d="M85.54,319.57v9.08H63.39v-6.4h1.8V306.17h-1.8v-6.4H85.54v9.08H79.18v-2.68h-7v4.64h5.44v-.2H84v6.8h-6.4v-.2H72.14v5h7v-2.68Z"/><path class="cls-3" d="M138,325.25,131.18,307v15.28H133v6.4H122.42v-6.4h1.8V306.17h-1.8v-6.4H135.9l3.84,12.44,3.88-12.44H157.1v6.4h-1.8v16.08h1.8v6.4H146.54v-6.4h1.8V307l-6.8,18.28Z"/><path class="cls-3" d="M203.66,322.25v6.4H193.1v-6.4h1.8v-5h-9.36v5h1.8v6.4H176.78v-6.4h1.8V306.17h-1.8v-6.4h10.56v6.4h-1.8v4.64h9.36v-4.64h-1.8v-6.4h10.56v6.4h-1.8v16.08Z"/><path class="cls-3" d="M248.7,322.25h6.72V318h6.36v10.68H239.95v-6.4h1.8V306.17h-1.8v-6.4H250.5v6.4h-1.8Z"/><path class="cls-3" d="M276.38,322.25h6.72V318h6.36v10.68H267.63v-6.4h1.8V306.17h-1.8v-6.4h10.56v6.4h-1.8Z"/><path class="cls-3" d="M311,320.25h-7.28l-.6,2h1.8v6.4H294.5v-6.4h1.8l5-16.08H299.5v-6.4h12.17l6.83,22.48h1.8v6.4H309.86v-6.4h1.8Zm-5.36-6.4h3.48l-1.72-6Z"/><path class="cls-3" d="M225.42,320.25h-7.28l-.6,2h1.8v6.4H208.91v-6.4h1.8l5-16.08H213.9v-6.4h12.17l6.83,22.48h1.8v6.4H224.26v-6.4h1.8Zm-5.36-6.4h3.48l-1.72-6Z"/><path class="cls-3" d="M107.9,320.25h-7.28l-.6,2h1.8v6.4H91.39v-6.4h1.8l5-16.08H96.38v-6.4h12.17l6.83,22.48h1.8v6.4H106.74v-6.4h1.8Zm-5.36-6.4H106l-1.72-6Z"/><path class="cls-3" d="M341.1,325.25,334.3,307v15.28h1.8v6.4H325.54v-6.4h1.8V306.17h-1.8v-6.4H339l3.84,12.44,3.88-12.44h13.48v6.4h-1.8v16.08h1.8v6.4H349.66v-6.4h1.8V307l-6.8,18.28Z"/></svg>