<?xml version="1.0" encoding="utf-8"?>
<!-- Generator: Adobe Illustrator 21.0.2, SVG Export Plug-In . SVG Version: 6.00 Build 0)  -->
<svg version="1.1" id="Layer_1" xmlns="http://www.w3.org/2000/svg" xmlns:xlink="http://www.w3.org/1999/xlink" x="0px" y="0px"
	 viewBox="0 0 308 338.7" style="enable-background:new 0 0 308 338.7;" xml:space="preserve">
<style type="text/css">
	.st0{fill:#333333;}
</style>
<title>tv</title>
<g id="FORGE">
	<path class="st0" d="M301.5,0v20.7l-41.6,2.4v18.7l41.5-1.3v20.6h-41.5V89l41.6,0.9v21L239,108V76.3c-12.4,30.5-37.4,35-57.1,30.8
		c-11.8-2.3-22.3-9.1-29.1-19.1c-6.8-9.7-10.1-21.5-9.4-33.3L131.8,64l18.9,39.4c-5.4,0-10.7,0.1-16-0.1c-0.9-0.2-1.6-0.8-2-1.6
		c-5.4-11.4-10.7-22.9-16.1-34.3c-0.4-0.8-0.9-1.5-1.4-2.2l-0.7,0.3v36.8l-14.3-0.7V69.2h-0.3c-0.9,2.9-1.6,5.9-2.7,8.8
		c-3.8,9.2-9.5,16.9-18.8,21.4c-12.3,5.7-26.9,2.6-35.7-7.8c-6.2-7.3-10-16.3-10.9-25.8c0-0.6-0.8-1.7-1.3-1.7
		c-4-0.1-8-0.1-12.2-0.1v33.6H7.6V23.1l28.7-2.3v14.7l-17.8,1v13.1c3.9,0,7.6-0.1,11.3,0c1.9,0,2.8-0.5,3.3-2.5
		c2.1-9,6.4-16.9,13.5-22.9C60,12.7,78.2,13.8,90,28.1c5,6.1,8.4,13.2,10,20.9V15.3c9.5-0.3,18.8-1,28.1-0.8
		c8.5,0.2,14.7,5.9,17.3,14.6c0.8,2.6,1.1,5.3,1.6,8.1C156.4,17.9,171.5,7,193.2,6c15.9-0.7,29.6,4.1,40.6,16l-14.3,13.8
		c-1.6-1.3-3.6-3.1-5.8-4.7c-12.8-9.3-30.6-8.8-42.1,0.9c-17.3,14.6-15.8,43,5.4,54.3c11,5.9,22.5,6,33.3-1.4
		c3.7-2.8,6.5-6.5,8.1-10.8h-27.6V56.4l24-0.4l24.1-0.4V4.8c5.1-0.4,10-0.8,14.9-1.2c13.9-1.1,27.8-2.2,41.7-3.2
		c0.3-0.1,0.6-0.2,0.8-0.4H301.5z"/>
</g>
<g id="tv">
	<path class="st0" d="M86.1,208.8H60.9v-27.7h24.9v-44.7l42.3,2.6v43.3c4.9,0,9.4,0,13.9,0c11.3,0.1,22.6,0.4,33.9,0.5
		c1.5,0,2.1,0.7,2.8,1.9c10.8,19.2,21.6,38.5,32.5,57.7c0.6,1.1,1.2,2.1,2,3.5c0.6-1.1,1.1-1.9,1.5-2.8c10.1-19,20.1-38.1,30.2-57.1
		c0.5-1.3,1.8-2.1,3.2-1.9c9.5,0.2,19,0.3,28.5,0.5c0.5,0,0.9,0.1,1.6,0.1c-1.4,2.8-2.7,5.4-4,8c-16.2,31.9-32.5,63.8-48.7,95.7
		c-0.5,1.3-1.7,2.2-3.1,2.2c-6.5,0.5-13.1,1.4-19.6,1.9c-0.9-0.2-1.7-0.7-2.1-1.5c-6.4-10.8-12.7-21.7-19.1-32.6
		c-9.5-16.2-18.9-32.4-28.4-48.6c-0.5-1.1-1.7-1.8-2.9-1.6c-6.3,0.1-12.7,0.1-19,0.1h-3.1v91.6l-42.3,4.3L86.1,208.8z"/>
</g>
<g id="Frame">
	<path class="st0" d="M308,316c-4,0.3-8.1,0.7-12.2,1l-45.2,3.6c-13.3,1.1-26.6,2.1-39.9,3.2l-52.3,4.2l-39.8,3.2
		c-17.4,1.4-34.8,2.8-52.2,4.3c-12.1,1-24.2,2.3-36.4,3c-6,0.4-12.1-0.2-18.1-0.4c-3.8-0.2-7.6-0.5-11.6-0.8c0-1,0-1.8,0-2.5
		c0-4.3,0-8.7,0-13c-0.1-71.3-0.2-142.6-0.3-214c0-3.6,0-3.6,3.6-3.7c7.7-0.4,15.4-1.1,23.1-1.3c4.8-0.1,9.7,0.6,14.5,0.9
		c8.4,0.6,16.8,1.2,25.1,1.8l36.9,2.5c8.4,0.6,16.8,1.1,25.1,1.7c14.4,1,28.7,2.1,43.1,3c8.1,0.6,16.3,1,24.5,1.6
		c15.8,1.1,31.7,2.1,47.5,3.2c13.5,0.9,27.1,1.9,40.6,2.8c7.9,0.6,15.8,1.1,24,1.7L308,316z M288.7,139.2L43.5,126.1v187.7
		l245.2-16.7L288.7,139.2z"/>
</g>
</svg>
