<svg id="Layer_1" data-name="Layer 1" xmlns="http://www.w3.org/2000/svg" viewBox="0 0 262.79 263.31"><defs><style>.cls-1{fill:#fad810;}.cls-2{fill:#fff;}.cls-3{fill:#0f1005;}</style></defs><title>uos</title><path class="cls-1" d="M131.31,259.31c-4.11,0-8.24-.19-12.27-.56a109.26,109.26,0,0,1-31.31-7.32,70.38,70.38,0,0,1-20.15-11.9,24.06,24.06,0,0,1-4.91-5.64,14,14,0,0,1-2.09-8.36l.26-3.4-3.32-.79a111.61,111.61,0,0,1-18.87-6.22c-10.59-4.61-19.1-10.41-26-17.72A45.81,45.81,0,0,1,6.83,190,18.26,18.26,0,0,1,4,181.08c-.19-5.21,2.65-10.12,5.65-15.32,1.35-2.33,2.75-4.75,3.87-7.23,3.54-7.82,7.45-11.22,13.5-11.74.64-.05,1.28-.08,1.93-.08l1,0,5.37.23L34,141.75c-1.14-4.5-2.08-9.15-2.79-13.83a169.39,169.39,0,0,1-1.82-25.85q0-27.27,0-54.55v-30C41.11,14.59,86.18,4,132.59,4c32.41,0,64,5,101.29,12.44.44,3.44.46,11.72.07,24.69-.06,2-.1,3.47-.1,4.16v1.32q0,28.27,0,56.54a160.71,160.71,0,0,1-3.62,34.35c-.31,1.4-.65,2.83-1,4.27l-1.31,5.16,5.32-.18h.74a20.94,20.94,0,0,1,3.69.33c6.58,1.18,10.4,7.82,13.75,14.52.53,1.05,1.08,2.12,1.64,3.2,3.61,6.94,7.34,14.11,5,21a29.64,29.64,0,0,1-5.36,9.2,65.56,65.56,0,0,1-18.35,15.37,104.29,104.29,0,0,1-28.81,11.24l-3.49.81.19,3.37a14.42,14.42,0,0,1-3,9.6A36.25,36.25,0,0,1,191,243a79,79,0,0,1-21.21,10.48A115.13,115.13,0,0,1,143,258.81C139.12,259.14,135.18,259.31,131.31,259.31Z"/><path class="cls-2" d="M132.6,8c31.21,0,61.78,4.66,97.53,11.77.19,4.13.13,11.24-.17,21.25-.06,2.1-.11,3.49-.11,4.27V46.6c0,18.54,0,37.7,0,56.55a156.67,156.67,0,0,1-3.53,33.5c-.3,1.35-.63,2.75-1,4.15l-2.62,10.32,10.64-.36h.6a16.94,16.94,0,0,1,3,.27c4.31.77,7.26,5.12,10.88,12.37.54,1.07,1.1,2.16,1.67,3.25,3.37,6.48,6.56,12.61,4.79,17.89a25.57,25.57,0,0,1-4.68,8,61.65,61.65,0,0,1-17.26,14.42,100.44,100.44,0,0,1-27.75,10.81l-.15,0-6.56,1.52.38,6.73a10.47,10.47,0,0,1-2.21,7,31.9,31.9,0,0,1-7.35,6.72,75.1,75.1,0,0,1-20.15,9.94,111.15,111.15,0,0,1-25.85,5.19c-3.8.32-7.62.48-11.37.48-4,0-8-.18-11.91-.55a105.33,105.33,0,0,1-30.18-7,66.49,66.49,0,0,1-19-11.21,19.92,19.92,0,0,1-4.11-4.69,10,10,0,0,1-1.52-6l.51-6.8-6.64-1.58a107.65,107.65,0,0,1-18.2-6c-10.09-4.39-18.17-9.89-24.7-16.8a42,42,0,0,1-5.32-6.74,14.32,14.32,0,0,1-2.23-7c-.15-4.06,2.41-8.48,5.12-13.17,1.4-2.42,2.84-4.92,4.05-7.58,3.35-7.39,6.39-9.08,10.2-9.41.52,0,1.05-.07,1.58-.07l.8,0,10.75.47-2.65-10.43c-1.11-4.37-2-8.9-2.71-13.44a165.4,165.4,0,0,1-1.78-25.25q0-27.28,0-54.55V20.68C48.37,17,89.87,8,132.59,8h0m0-8h0C77.67,0,25.38,14.47,25.38,14.47V47.52q0,27.27,0,54.54a173.3,173.3,0,0,0,1.87,26.46q1.1,7.24,2.87,14.21l-1.15,0c-.75,0-1.52,0-2.27.1-8.86.77-13.42,6.63-16.8,14.07C6.36,164.68-.32,172.19,0,181.23a22.2,22.2,0,0,0,3.4,10.86,49.71,49.71,0,0,0,6.33,8.06C17,207.86,26,214,37.06,218.79a116.15,116.15,0,0,0,19.54,6.44A18,18,0,0,0,59.26,236,27.9,27.9,0,0,0,65,242.55a74.31,74.31,0,0,0,21.27,12.59,113.2,113.2,0,0,0,32.43,7.59c4.16.38,8.42.58,12.64.58,4,0,8-.17,12-.51a119.14,119.14,0,0,0,27.71-5.58,82.94,82.94,0,0,0,22.26-11,39.86,39.86,0,0,0,9.09-8.41,18.46,18.46,0,0,0,3.81-12.24l.24-.06a108.24,108.24,0,0,0,29.9-11.68,69.47,69.47,0,0,0,19.44-16.31,33.35,33.35,0,0,0,6-10.43c3.26-9.71-2.7-18.91-6.89-27.27-3.56-7.12-8-15.13-16.62-16.67a25,25,0,0,0-4.4-.39l-.87,0q.55-2.18,1-4.4a164.67,164.67,0,0,0,3.72-35.21q0-28.94,0-57.87c0-3.72,1.38-31.85-1-32.34C202.44,6,167.86,0,132.6,0Z"/><path class="cls-3" d="M240.54,164.45c.26.69.51,1.39.79,2.08a33.35,33.35,0,0,0,5.95,10.36,5.42,5.42,0,0,1,1.06,5.68,19.87,19.87,0,0,1-3.64,6.05,55.78,55.78,0,0,1-15.57,13,94.68,94.68,0,0,1-26,10.12,125,125,0,0,1-13.33,2.47,25.55,25.55,0,0,1-1.13-4.67,41.88,41.88,0,0,1-.55-4.43,3.43,3.43,0,0,0-3.14-3.5,12.17,12.17,0,0,0-5.77.42c-1,.26-1.65,1.17-2.65,2,1.83-.34,3.38-.71,5-.87a7.82,7.82,0,0,1,2.84.1,1.85,1.85,0,0,1,1.62,2.14,6.48,6.48,0,0,1-.69,2.64,13.32,13.32,0,0,1-2.27,3.29c-4.2,4.52-9.37,7.64-15,10.31a51.33,51.33,0,0,1-4.16-8.67,221,221,0,0,1-32.33,16.74,218.69,218.69,0,0,1-32.4-16.79c-.61,1.57-1.15,3.05-1.76,4.51a34.12,34.12,0,0,1-2.19,4.36,30,30,0,0,1-4.59-2.28,45.87,45.87,0,0,1-10.37-7.67A15.24,15.24,0,0,1,77.35,208a6.42,6.42,0,0,1-.63-1.83c-.33-2.09.43-3,2.56-3.1a23,23,0,0,1,5.22.62,3.64,3.64,0,0,0,1.84.23c-2.68-2.71-5.92-2.82-9.27-2.11A3.16,3.16,0,0,0,74.63,205a41.46,41.46,0,0,1-1.38,8.23c0,.18-.12.36-.19.57a9,9,0,0,1-2.71-.3,113.06,113.06,0,0,1-27.71-7.71A67.74,67.74,0,0,1,20,190.41a35.32,35.32,0,0,1-4.55-5.74,8.08,8.08,0,0,1-1.32-4,5.44,5.44,0,0,1,1.39-4c3.09-3.37,4.92-7.41,6.44-11.63.08-.21.17-.42.27-.66.39.17.39.55.52.83a40,40,0,0,0,11.2,13.87,69.31,69.31,0,0,0,20.7,11.52,105.25,105.25,0,0,0,21.65,5.25c.19,0,.38,0,.58,0,0-.4-.28-.53-.48-.72a114.82,114.82,0,0,1-27.7-40.78,127.24,127.24,0,0,1-7.5-28,160.45,160.45,0,0,1-1.71-24.31q0-37.65,0-75.31c0-.38,0-.76,0-1.21a377.63,377.63,0,0,1,183.95,0,1.47,1.47,0,0,1,.16,1q0,38.29,0,76.57a149.6,149.6,0,0,1-3.38,32.17A115,115,0,0,1,190,191.81c-1.28,1.31-2.57,2.6-3.86,3.9,0,0,0,.07,0,.17,2.67-.31,5.28-.79,7.89-1.32a89,89,0,0,0,24.23-8.46,54.61,54.61,0,0,0,17.69-14.28,32.24,32.24,0,0,0,4.15-6.83C240.17,164.81,240.17,164.52,240.54,164.45ZM131.48,223.58l.59-.23a212.35,212.35,0,0,0,21.22-10.25A146.83,146.83,0,0,0,185,189.79c16.95-16.64,27.4-36.74,32-60a147.71,147.71,0,0,0,2.67-28.24q.06-35.54,0-71.07a3.71,3.71,0,0,0-.08-1.39.84.84,0,0,0-.55-.3c-6.81-1.71-13.69-3.13-20.59-4.38q-11.15-2-22.39-3.51c-6.43-.86-12.88-1.6-19.35-2.17-7.61-.67-15.24-1.11-22.88-1.19s-15.12.26-22.66.82c-4.42.33-8.83.74-13.23,1.21q-7.86.84-15.68,2-8.1,1.17-16.16,2.61c-7.1,1.27-14.17,2.69-21.17,4.43a3,3,0,0,0-1.49.49,5,5,0,0,0-.07,1.49q0,35.48,0,71a150.89,150.89,0,0,0,.85,16.12,131.92,131.92,0,0,0,5.34,26,111.61,111.61,0,0,0,11.92,25.8,116.69,116.69,0,0,0,25.15,28.14C100.15,208.62,115.36,216.81,131.48,223.58Zm-63.24-24.7L63,205.66c-.07-2.9.05-5.49-.1-8.05-2.25-.86-3.64-1.09-4.17-.67.34.39,1,.23,1.38,1-.83,2.88-2,5.83-3.13,8.77-.53.47-1.36-.61-1.75.46,1.43.27,2.74.91,4.3.84-.33-.71-1.06-.46-1.4-1.19a57.57,57.57,0,0,1,2.38-6.57c.21,2.79.17,5.56.41,8.29a1.42,1.42,0,0,0,1,.21l5.31-6.84.21.12c-.7,2.27-1.25,4.58-2.06,6.62-.66.41-1.24-.15-1.89.47a33.58,33.58,0,0,0,5.39,1.11c.21,0,.29-.21.28-.41-.32-.38-.91-.17-1.22-.56-.16-1.09,2.12-8.51,2.83-9.23.46-.16,1,.27,1.43,0C71.85,199.38,70.38,199,68.24,198.88Zm-23.48.26c-.78.68-.58,2-1.69,2.3-.54-.5-.3-.91-.12-1.33.56-1.26,1.13-2.51.3-3.93.41,0,.67,0,.93-.05a2.44,2.44,0,0,0,2.06-3.52,3.58,3.58,0,0,0-1.67-1.82l-5.31-2.92c-.18-.1-.36-.34-.7,0,.1.63,1.17.54,1.16,1.33-.54,2-3.41,7.69-3.9,8.05-.7.35-1.11-.76-1.72.15l5.31,2.9c0-1.14-1.21-.93-1.32-1.87a38.36,38.36,0,0,1,1.72-3.74c1.71.62,2.1,1.36,1.62,3-.12.4-.3.78-.45,1.17a2.32,2.32,0,0,0,1.65,3.36,1.35,1.35,0,0,0,1.81-.75c.34-.63.62-1.3.93-2A1.23,1.23,0,0,0,44.76,199.14ZM22.08,172.24c-.25.34-.13.51,0,.64.81.8.63,1.57.11,2.47-1,1.68-1.86,3.42-2.79,5.12-.19.36-.31.79-.72.91-.48-.1-.57-.71-1.14-.66a42.73,42.73,0,0,0,3.65,4.86c.13-1-.66-1.3-.83-1.91A8.47,8.47,0,0,1,22.25,180a3.1,3.1,0,0,1,.93,3.42c-.2.62-.48,1.2-.68,1.82a3.14,3.14,0,0,0,2,3.92,6,6,0,0,0,1.41-2.4.5.5,0,0,0-.44-.54c-.47.6-.59,1.41-1.21,1.95a.77.77,0,0,1-.35-1.09c.61-1.42,1.32-2.82.73-4.51,1.83.52,2.49.07,2.64-1.62a5.2,5.2,0,0,0-1.2-3.83c-.88-1.1-1.74-2.23-2.63-3.32A9.14,9.14,0,0,0,22.08,172.24ZM25.29,190c.1.71,5,5,7.11,6.29,1.28-1.86,1.78-3,1.61-3.73-.78.72-1.22,1.83-2.54,2a10.44,10.44,0,0,1-3-2.33l2.05-3.83a4.66,4.66,0,0,1,1.12,1c.54,1.15-.39,2-.15,3a23.29,23.29,0,0,0,2.64-5.2c-.74.37-.9,1.34-1.81,1.46a2.9,2.9,0,0,1-1.43-1,34.06,34.06,0,0,1,2-3.43c2.59,1.25,3.16,2.49,2.36,5,0,.15-.11.29-.16.43s-.1.45.29.59c.66-1.11,1.26-2.27,1.84-3.49-2.41-1.89-4.62-3.93-7.18-5.82-.09.92.7,1,.84,1.52,0,1-3.51,7.59-4.36,8.18C26,190.55,25.84,190,25.29,190Zm198,9.15a2.78,2.78,0,0,0,2.62-.12,4.43,4.43,0,0,0,2.16-5.16,2.28,2.28,0,0,0-2.79-1.89c-.79.09-1.58.27-2.38.33-1.13.07-1.7-.57-1.58-1.7a2.45,2.45,0,0,1,1.87-2.08,2,2,0,0,1,2.18,1.11c.25.37.29.93.8,1.17a8.29,8.29,0,0,0-1.15-4.29c-.4.37.05,1-.37,1.34a2.61,2.61,0,0,0-2,.06,4.3,4.3,0,0,0-2.58,4.22c.18,1.66,1,3.37,3.53,2.78a13.78,13.78,0,0,1,1.46-.25,1.6,1.6,0,0,1,1.92,1.81,2.19,2.19,0,0,1-.85,1.56,2.29,2.29,0,0,1-3.48-.58c-.35-.45-.46-1.09-1.12-1.35a22.26,22.26,0,0,0,1.22,4.62C223.18,200.16,223,199.63,223.29,199.12ZM207,207c-.6-.63-1.28.1-1.77-.52a9.46,9.46,0,0,1-.06-2.39,20.42,20.42,0,0,1,2.67-.84,5.63,5.63,0,0,1,1.34,2.12,1.15,1.15,0,0,1-.85.64c-.35.12-.7.22-.32.78,1.71-.56,3.44-1.12,5.16-1.71.29-.1.25-.34.06-.56-.45-.13-.84.36-1.43.25l-6.38-9c-.26.07-.41.1-.55.15a.63.63,0,0,0-.44.34c-.13,3.66.06,7.35-.37,11-.17.47-1.28.1-.87,1.07A37.26,37.26,0,0,0,207,207ZM210.21,195l6.45,8.48a1.3,1.3,0,0,0,1-.5c0-1.85,0-3.76,0-5.66a38.89,38.89,0,0,1,.16-5.68c.24-.36.79-.37.94-.81a5.26,5.26,0,0,0-3.54,1.44c.41.49.84-.21,1.26,0,.44.71.62,6.23.21,7.44-1.33-1.91-2.84-3.65-3.92-5.4.18-1,1-.82,1.26-1.41-.83-.25-4.83,1.54-5.17,2.26a.36.36,0,0,0,.09.07C209.34,195.41,209.62,195.09,210.21,195Zm-11.06,3.37a.92.92,0,0,1-.26,0,4.18,4.18,0,0,0-5.81,2.57,6.77,6.77,0,0,0,1.86,7.41,4.77,4.77,0,0,0,5.45.56,3.49,3.49,0,0,0,1.43-4.5.36.36,0,0,0-.43.4c0,.31,0,.61,0,.92a2.65,2.65,0,0,1-1.91,2.69,2.55,2.55,0,0,1-3-1.09,9.23,9.23,0,0,1-1.61-6.3,2.18,2.18,0,0,1,1.57-2.17,2.58,2.58,0,0,1,2.75,1,6.13,6.13,0,0,1,1,1.77c.12.32.27.56.75.21-.48-1.47-.68-3.05-1.32-4.59C199.22,197.67,199.42,198.09,199.14,198.42Zm-143.59-2-4.27,5.76-.23-.13c.17-2.44.1-4.89.37-7.2.71-.3,1.17.18,1.66,0-.35-.72-3.95-2.06-5-1.9.1.49.74.38.92.95v11a1,1,0,0,0,1,.25l6.6-8.55c.49-.17,1,.46,1.36-.08-1.09-.92-3-1.49-3.52-1.07.1.24.34.29.55.37S55.3,196,55.55,196.42Zm183.19-9.07a2.06,2.06,0,0,0,2.12-1A6.06,6.06,0,0,0,242,181c-.5-2.22-1.48-2.6-3.4-1.41-.57.35-1.09.86-1.84.73a2.78,2.78,0,0,1,.06-3.8,1.24,1.24,0,0,1,2.12,0c.33.35.42.89.91,1.15a8.79,8.79,0,0,0-1.5-4.09c-.17.45.1.91-.05,1.44a2,2,0,0,0-1.81.91,5.79,5.79,0,0,0-1,5.71c.57,1.73,1.48,2,3.05,1l.87-.55a1.21,1.21,0,0,1,1.29-.12,2.77,2.77,0,0,1-1.42,4.43,4,4,0,0,1-.69-.28c-.64-.4-1-1.13-1.49-1.72a9.93,9.93,0,0,0,1.51,4.41C238.91,188.39,238.46,187.83,238.74,187.35Zm-2.33,2.51-5.94-7.29a1.39,1.39,0,0,0-.84.73c.19,3.9.61,7.8.62,11.71-.1.53-1.09.59-.75,1.36,1.92-1.17,2.88-2.12,2.79-2.8-.35.13-.58.54-1.1.39a8.3,8.3,0,0,1-.37-2.63,25.74,25.74,0,0,1,2.19-1.72,3.81,3.81,0,0,1,1.28,1.81c.13.79-1.19.84-.88,1.86l4.23-3.47c.23-.19.22-.38-.06-.58C237.21,189.28,237.05,189.78,236.4,189.86Z"/><path class="cls-3" d="M187,209.38c.45,2.31.91,4.63,1.54,6.91a49.67,49.67,0,0,0,3,8.38,4.07,4.07,0,0,1-.51,4.59,26.59,26.59,0,0,1-6,5.42,69.18,69.18,0,0,1-18.52,9.11,104.34,104.34,0,0,1-24.41,4.89,125.83,125.83,0,0,1-22.19-.06A100,100,0,0,1,91.46,242a60.51,60.51,0,0,1-17.29-10.15,14,14,0,0,1-2.88-3.24,3.53,3.53,0,0,1-.32-3.49,60.17,60.17,0,0,0,4.66-15.28,3.53,3.53,0,0,1,.15-.46c.38.07.43.41.59.63a33.43,33.43,0,0,0,9.19,8.35,80.17,80.17,0,0,0,23.82,10.36,86,86,0,0,0,15.89,2.68,81.07,81.07,0,0,0,14.41-.2A88.82,88.82,0,0,0,164.36,225c6.82-2.8,13.24-6.26,18.71-11.3a23.19,23.19,0,0,0,3.3-3.79C186.52,209.73,186.59,209.43,187,209.38Zm-20.07,20.34a83.44,83.44,0,0,1,1,9c-.23.66-1.42.23-1.31,1.31a50.57,50.57,0,0,0,5.24-2.12c.31-.15.37-.35.17-.64-.56,0-1,.55-1.7.36a29.56,29.56,0,0,1-.56-4.34c1.81-1.09,2.48-.81,2.9,1.18.07.34.1.68.18,1a1.31,1.31,0,0,0,1.88,1.07c1.38-.41,2.68-1.68,2-3.26a6.89,6.89,0,0,1-.24-1.12,1,1,0,0,0-.15-.26c-.23,0-.41,0-.48.25-.24,1,1.06,2.16-.46,3.1-.87-1.34-.19-3.38-2.2-4a4.24,4.24,0,0,0,1.66-2.66c.22-1.87-1.1-3-2.84-2.31-2.2.87-4.32,1.91-6.48,2.89-.26.12-.44.3-.21.65C165.79,229.87,166.21,229.39,166.89,229.72Zm-47.51,10.56a6.66,6.66,0,0,0,.57,2.87,4.91,4.91,0,0,0,8.22,1.33,6.76,6.76,0,0,0,1-7.27,4.85,4.85,0,0,0-8.16-1A7,7,0,0,0,119.38,240.27Zm41.2-7.26a1.71,1.71,0,0,0-.5,1.28c-.2,1.6-.46,1.86-2.21,2.19a20,20,0,0,1-.21-3.95,2.63,2.63,0,0,1,1.26-.61c2.55-.81,2.82-.66,3.55,1.88.09.31.18.5.63.32a28,28,0,0,0-.5-4c-1,.3-2,.6-3,.88-1.76.49-3.53,1-5.29,1.47-.33.1-.89.07-.72.78.51,0,1-.39,1.45-.12.54,1.32.88,8.89.44,9.66-1.1.42-1.1.42-1.13,1a63.61,63.61,0,0,0,9.7-2.84c-.12-2.84-.22-3.41-.75-4a6.32,6.32,0,0,0-.36,2.12,2.25,2.25,0,0,1-.9,1.77,10.66,10.66,0,0,1-3.82,1.18l-.34-4.52a3.21,3.21,0,0,1,1.82-.37c.83.53.44,1.61,1.25,2.44A50.88,50.88,0,0,0,160.58,233Zm-45,11.92c.59-3.42.86-6.84,1.47-10,.59-.5,1.21.09,1.64-.41a7.93,7.93,0,0,0-4.42-.74c.28.74,1.33.15,1.65,1.29a33.92,33.92,0,0,1-.86,6L111,232.89c-1.13-.08-2.16-.65-3.41-.47.37.71,1.08.46,1.42.9.28,1.2-1,8.65-1.62,9.39-.4.2-.88-.25-1.29.12a9.92,9.92,0,0,0,4,1.28c.24,0,.33-.15.32-.39-.33-.49-1-.22-1.56-.89,0-2.19.64-4.48,1-6.82H110l4.4,8.7A1.7,1.7,0,0,0,115.6,244.93Zm-11.73-13c-.2-.25-.4-.52-.63-.76a4.38,4.38,0,0,0-6.18-.37,6.36,6.36,0,0,0,.47,9.56,3.58,3.58,0,0,0,4.47.24c.52.33.11,1.26,1,1.41a12.8,12.8,0,0,0,.62-2.29c.25-.74.11-1.62.8-2.18.36-.26.79.46,1.22-.23a43.54,43.54,0,0,0-5.08-1.57c0,1.06,1.08.66,1.31,1.43a4.62,4.62,0,0,1-.34,2.29,1.39,1.39,0,0,1-1.81,1,2.72,2.72,0,0,1-2.05-2,7.73,7.73,0,0,1,.92-6.36,2.31,2.31,0,0,1,2.56-1.32,2.67,2.67,0,0,1,2.1,2.17,5.54,5.54,0,0,1,.19,2c0,.29,0,.55.49.5a40.09,40.09,0,0,0,1-4.25l-.19,0C104.28,231.22,104.31,231.81,103.87,231.91Zm-10.21-.65a6.74,6.74,0,0,0-3.53-6A3.7,3.7,0,0,0,85,226.58a6.7,6.7,0,0,0,3.37,9.72,3.62,3.62,0,0,0,4.37-1.56A6.72,6.72,0,0,0,93.66,231.26Zm84.76-7.54a1.38,1.38,0,0,1,.23.38q.82,3.92,1.61,7.84a1.26,1.26,0,0,1-.67,1.34c-.28.19-.76.29-.51,1a58.14,58.14,0,0,0,8.16-6.18c-.43-1.25-.57-2.5-1.12-3.72-.53.53-.25,1.09-.23,1.57a4.6,4.6,0,0,1-3.56,5,6.89,6.89,0,0,1-.46-1.85,11.82,11.82,0,0,1-.39-2.27,3.29,3.29,0,0,1,1.55-1c.8.34.52,1.27,1.11,1.71a14.51,14.51,0,0,0-1.28-5.64c-.31.78.12,1.52,0,2.26a2.7,2.7,0,0,1-1.49,1.83,5.46,5.46,0,0,1-.41-1.45c-.56-2.55-.35-3,1.89-4.3a1.21,1.21,0,0,1,1.06-.18c.77.4.72,1.36,1.38,1.85a12.43,12.43,0,0,0-.88-3.71c-2.39,1.87-4.73,3.64-7.12,5.35-.2.14-.5.28-.21.64C177.55,224.21,177.79,223.6,178.42,223.72Zm-39.88,11.79a7.18,7.18,0,0,0-.75-.52,3.65,3.65,0,0,0-3.91.14,3.25,3.25,0,0,0-1.46,3.48,3.19,3.19,0,0,0,2.33,2.56,16.51,16.51,0,0,1,2.59.9,1.75,1.75,0,0,1,.91,1.93,1.7,1.7,0,0,1-1.6,1.4,2.72,2.72,0,0,1-2.81-1.38,5.89,5.89,0,0,1-.72-2.16c0-.28-.09-.54-.59-.43v4.65c.67-.14.52-.89,1-1.08l.35.29a3.87,3.87,0,0,0,4.47.38,3.67,3.67,0,0,0,1.64-3.85c-.27-1.52-1.43-2.07-2.69-2.51a18.06,18.06,0,0,1-2.27-.77,1.53,1.53,0,0,1-1-1.74,1.84,1.84,0,0,1,1.57-1.46,2.44,2.44,0,0,1,2.92,1.8,9.2,9.2,0,0,1,.28,1.34c.06.38.27.4.56.29v-4.4C138.86,234.62,139,235.16,138.54,235.51Zm12.88,4.73a9.78,9.78,0,0,1-.49,2,3.26,3.26,0,0,1-2.81,1.89,2,2,0,0,1-2-1.21,8.47,8.47,0,0,1-.1-7.41,2.26,2.26,0,0,1,2.65-1.33,2.68,2.68,0,0,1,1.9,1.81c.23.5.16,1.12.78,1.76a17.45,17.45,0,0,0-.12-5c-.69.19-.42.88-.84,1.1a4.52,4.52,0,0,0-5.49.87,7,7,0,0,0-2.07,5.52,4.86,4.86,0,0,0,3.64,4.73c3.24.68,5.64-1.4,5.59-4.89A.84.84,0,0,0,151.42,240.24Zm-69-18.33a6.1,6.1,0,0,0-2.44-3,2.45,2.45,0,0,0-3.3.51,4.53,4.53,0,0,0-.92,1.7,9,9,0,0,0,.25,5.73,6.81,6.81,0,0,0,3,3.93,2.11,2.11,0,0,0,3.25-1.52c.06-.29,0-.53-.31-.65-.33.17-.34.56-.51.84a1.42,1.42,0,0,1-2.28.6,3.4,3.4,0,0,1-1.51-1.94,10,10,0,0,1,.55-7.14,2.42,2.42,0,0,1,.45-.66,1.21,1.21,0,0,1,1.82-.18,3.44,3.44,0,0,1,1.29,2.1,8.23,8.23,0,0,1,.14,2.85c0,.3-.11.61.45.74a41,41,0,0,0,1-4.36C82.8,221.44,82.79,221.84,82.41,221.91Z"/><path class="cls-3" d="M220.78,168.44a3.72,3.72,0,0,1,.21-3.25,14.21,14.21,0,0,1,7.72-7.12,12.14,12.14,0,0,1,7-1,3.7,3.7,0,0,1,3.35,4.28,13.06,13.06,0,0,1-1.35,4.58,21.7,21.7,0,0,1-2.11,3.55l-4.27-6.8a17.16,17.16,0,0,1-4.17,4.67,8.59,8.59,0,0,1-3.62,1.61A3.6,3.6,0,0,1,220.78,168.44Z"/><path class="cls-3" d="M31.31,162.73l-4.2,6.69a9,9,0,0,1-1.62-2.37,15.4,15.4,0,0,1-1.79-4.56c-.64-3.06,1-5.3,4.12-5.57a13.39,13.39,0,0,1,8.56,2.34,14.08,14.08,0,0,1,4.78,4.84,4.75,4.75,0,0,1,.62,3.9c-1.17,1-2.53.83-3.87.46a10.33,10.33,0,0,1-5.18-3.79C32.25,164.1,31.84,163.46,31.31,162.73Z"/><path class="cls-3" d="M222.68,170.68a12.24,12.24,0,0,0,8.73-4.95l3.22,5.15a46.3,46.3,0,0,1-6.29,6.55Z"/><path class="cls-3" d="M31.25,165.81c3.43,3.33,3.43,3.33,8.68,5l-5.53,6.61a42.8,42.8,0,0,1-6.31-6.53Z"/><path class="cls-3" d="M52.47,97.59a20.32,20.32,0,0,0,3.62-1.21c-.49-.64-1.23-.8-1.73-1.28-1.55.26-2.88,1.2-4.47,1.1.87-.87,2.1-1.12,3.08-1.95l-5.38-3.47a12.38,12.38,0,0,1,1.26-2.07c1.24.54,2.18,1.46,3.4,2,.43-1.35.53-2.72.9-4.12,3.1,1.91,6.18,3.68,9.05,5.76,2,1.47,3.07,3.65,4,5.91l.77,2,20.48,13.15.87-11.72-17.14-11c-1.62.08-3.2.62-4.82.11,1-.49,2.18-.46,3.34-1a9.81,9.81,0,0,0-1.76-1.16,43.2,43.2,0,0,1-4.26.78,3.28,3.28,0,0,1-1.12-.08c-.06-.47.31-.43.59-.5a21.08,21.08,0,0,0,3.46-1.07l-1.91-1.26a31,31,0,0,1-5.14,1.07,19,19,0,0,0,2.92,1.86,12.45,12.45,0,0,0,8.25,2.47,6,6,0,0,1,1.78,0c0,.17,0,.29-.13.31-3.45.59-6.77.41-9.8-1.57l-8.36-5.45c1.53-.79,2.65-1.85,4.14-2.34a14.22,14.22,0,0,1-2.48,2.28c1.15.91,2.38,1.6,3.47,2.33,1.09-1.08,2.66-1,3.91-1.85a11.3,11.3,0,0,0-1.81-1.17c-1.47.28-2.79,1.15-4.38,1.11.83-.88,2.06-1.13,3.08-2L54.66,80,56,78l3.34,2.08c.5-1.35.51-2.74,1-4.13,1.42.87,2.82,1.71,4.2,2.57s2.5,1.61,3.76,2.4A11.08,11.08,0,0,1,72.58,86c.53,1.18,1,2.38,1.52,3.6l14.38,9.23L89.34,87c-2.66-1.69-5.27-3.47-8-5.07a.84.84,0,0,0-.51-.37.18.18,0,0,0-.19-.08c-.29-.22-.48-.63-1-.45l0,0c-.32-.77-1.15-.86-1.7-1.32a10.6,10.6,0,0,1-4.68.18c1.08-.44,2.26-.48,3.41-1L75,77.81c-1.86.22-3.57,1-5.4.51,1.23-.63,2.64-.72,3.93-1.41a11.74,11.74,0,0,0-1.92-1.23c-1.7.24-3.28,1.16-5.05.7,1.18-.62,2.48-.91,3.73-1.58l-1.86-1.2c-1.53.27-2.85,1.22-4.42,1.08.89-.85,2.14-1.07,3-1.93a9.84,9.84,0,0,0-1.82-1.12l-3.52-2.37a8.15,8.15,0,0,1,1.36-2.05l3.26,2.06c.5-1.36.54-2.74,1-4.12.53.3,1,.54,1.44.81,1.84,1.15,3.63,2.4,5.52,3.46A13.31,13.31,0,0,1,80.37,77c.19.54.41,1.07.67,1.74l8.45,5.43.31-3.61c1-.18,2,.27,3.09,0,.29-.65.05-1.41.32-2.11.8-.27,1.59.13,2.43,0a7.1,7.1,0,0,0,.27-2.4c-2.43-1.54-4.81-3.18-7.3-4.63-1.13-.89-2.39-1.59-3.54-2.33-.87.12-1.66.25-2.45.34-1.22.15-1.62.1-2.24-.31a34.65,34.65,0,0,0,3.42-.87L82,67.1c-.89.19-1.73.44-2.59.54s-1.92.53-2.9.1l0,0c.11-.43.5-.39.82-.48a16.83,16.83,0,0,0,3.29-1.05L78.66,65c-1.76.3-3.33,1.2-5.07.86l-.05-.25,3.87-1.42a15.63,15.63,0,0,0-2.08-1.27c-.75.26-1.46.53-2.19.74a3.37,3.37,0,0,1-2.33.34c1.18-.77,2.34-1.11,3.35-1.92-1-.56-1.78-1.24-2.73-1.65l-2.71-1.87L70,56.47l3.37,2.12c.42-1.38.56-2.71.86-4,.44-.07.72.25,1,.43,2.3,1.42,4.57,2.9,6.89,4.31a11.65,11.65,0,0,1,5,6.48,6.51,6.51,0,0,0,3,3.64c4,2.47,8,5.07,12,7.64a3.18,3.18,0,0,0,1.82.54,69.67,69.67,0,0,0,11.57-1.44,45.52,45.52,0,0,1,9.76-1.08,15.63,15.63,0,0,1,5.56,1.19,2.47,2.47,0,0,0,1.89.08,24.76,24.76,0,0,1,13.66-.64,72.41,72.41,0,0,0,9,1.56c1.49.12,3,.07,4.46.05a2.57,2.57,0,0,0,1.37-.51q6.45-4.15,12.91-8.27a2.61,2.61,0,0,0,1.11-1.38,20.77,20.77,0,0,1,2.19-4.64,9.73,9.73,0,0,1,2.81-2.82c2.67-1.7,5.36-3.38,8-5.06a.33.33,0,0,1,.39,0c.37,1.24.43,2.63.9,4l3.25-2.06a12.33,12.33,0,0,1,1.46,2l-5.48,3.56a15.3,15.3,0,0,0,3,1.53c.08.13.18.25.12.35-.27.27-.54.1-.8.14l-3.53-1.24a11.48,11.48,0,0,0-1.88,1.28,24.57,24.57,0,0,0,3.73,1.33c-.15.72-.7.45-1.1.41a32.26,32.26,0,0,1-4-.94,13,13,0,0,0-1.9,1.31c1.29.63,2.7.72,4.08,1.31-.83.65-1.57.06-2.25.21l-3.18-.67a7.69,7.69,0,0,0-1.76,1.14c1.1.54,2.26.52,3.3,1-1.57.56-3.12,0-4.73-.13L166,76.75v2.92h2.73c.37.64,0,1.33.28,2a19.17,19.17,0,0,1,3.26-.15c.5,1,0,2.07.41,3.15l9.2-5.9c.59-1.36,1.13-2.71,1.74-4a10.75,10.75,0,0,1,4.1-4.66l8-5,.86,4.16c1.27-.54,2.22-1.45,3.4-2a13.73,13.73,0,0,1,1.31,2c-.92.77-2,1.29-2.92,2-.29.21-.73.26-.79.71l0,0c-.7,0-1.07.56-1.69.91,1,.8,2.22,1.07,3.08,1.92-1.6.14-2.92-.86-4.44-1.08l-1.88,1.22a19.41,19.41,0,0,0,3.5,1.2c.08.12.26.17.23.51-1.75.25-3.33-.59-5-.87a12.55,12.55,0,0,0-1.95,1.27c1.37.68,2.79.71,4,1.45-1.72.32-3.34-.25-5-.5-.91-.11-1.36.66-2.2,1.07a12.72,12.72,0,0,0,3.34.71.24.24,0,0,1,0,.4,16.74,16.74,0,0,1-2.33.09l-2.32-.39-12.34,7.92.64,11.9,15.67-10.05a37.13,37.13,0,0,1,2.34-5.16,9.88,9.88,0,0,1,3-3.14c2.66-1.72,5.36-3.38,8-5.07a.58.58,0,0,1,.5-.11l.82,4L206.91,78a13.72,13.72,0,0,1,1.38,2l-5.51,3.56,3.36,1.77c-1,.57-1.62-.09-2.33-.25a20.63,20.63,0,0,1-2.15-.74,9.25,9.25,0,0,0-1.87,1.2c1.18.88,2.76.79,3.94,1.83l3.43-2.25c-.8-.9-1.91-1.32-2.45-2.37,1.41.57,2.55,1.57,3.83,2.24,0,.16,0,.21,0,.23a84.76,84.76,0,0,1-9.73,6.21,10.61,10.61,0,0,1-6.37.91c-.69-.09-1.46.11-2.06-.42a4.08,4.08,0,0,1,2-.09,12.41,12.41,0,0,0,8.2-2.52,19.2,19.2,0,0,0,2.94-1.84,30.4,30.4,0,0,1-5.19-1l-2,1.27a31,31,0,0,0,3.53,1.05c.28.08.64,0,.62.49a3.71,3.71,0,0,1-1.24.08c-1.45-.12-2.84-.53-4.28-.76l-1.69,1.09c1.09.66,2.34.46,3.31,1.11a14.41,14.41,0,0,1-4.73-.19,13,13,0,0,0-1.72,1.17c-2.36,1.34-4.58,2.89-6.86,4.34-3.28,2.09-6.55,4.2-9.89,6.34l.77,11.5c.35.21.53-.06.73-.19q10.21-6.54,20.42-13.09a2.65,2.65,0,0,0,1.1-1.4c.37-1,.8-2,1.25-2.95a11.15,11.15,0,0,1,4.44-4.95c2.28-1.39,4.52-2.84,6.79-4.25a1.83,1.83,0,0,1,1-.43l.82,4c1.23-.52,2.19-1.39,3.37-2a10.63,10.63,0,0,1,1.39,2L210,94.21a10.08,10.08,0,0,0,2.47,1.42c.34.18.72.29.61.8l0,0c-1.55-.18-2.92-.95-4.46-1.32a9.12,9.12,0,0,0-1.82,1.29,11.38,11.38,0,0,0,2.13.74,3.52,3.52,0,0,0,1.57.51h0c-.09.75-.65.49-1,.45a25.22,25.22,0,0,1-4-1l-2,1.29c1.39.65,2.8.79,4.06,1.43-1.86.41-3.61-.32-5.45-.55l-1.75,1.16c1.19.48,2.37.52,3.45,1-1.57.51-3.11,0-4.71-.16a24.86,24.86,0,0,0-2.7,1.8c-3.22,1.9-6.31,4-9.46,6-4.15,2.64-8.28,5.31-12.52,8l.5,6.67,20.17,12.95,1.67-2.1c5.12,1.18,9.63,6.41,9.25,10.73a5.84,5.84,0,0,1-3.66.88,12.09,12.09,0,0,1-7.15-2.4,20.88,20.88,0,0,1-2.76-2.29,5.39,5.39,0,0,1,.88-1.87c1.29.66,2.45,1.45,3.74,2a14,14,0,0,0,4,1.19c-9-4.68-17.26-10.55-26-16l.88,12.73,12,7.71c.71-.63,1.1-1.5,1.8-2.08,5.3,1.56,9.75,6.74,9.18,10.72a5.09,5.09,0,0,1-3.1.89,12,12,0,0,1-7.25-2.06,34.41,34.41,0,0,1-3.25-2.57,5.21,5.21,0,0,1,.88-1.93c1.23.63,2.35,1.41,3.6,1.95a11.25,11.25,0,0,0,3.93,1.15c-6-3.2-11.7-6.83-17.5-10.63a7.19,7.19,0,0,0,0,1.9c.07,1.33.19,2.67.21,4,0,1.94-.58,2.42-2.45,2L167.38,149a.63.63,0,0,0-.51.08l14.1,9.07c.76-.59,1.12-1.54,1.87-2.09,5.7,2.05,9.81,6.93,9.09,10.8a7.42,7.42,0,0,1-4.95.76c-3.44-.38-6.09-2.26-8.54-4.55,0-.74.5-1.25.76-2,2.37,1.34,4.61,2.74,7.22,3.24l.11-.22c-.92-.54-1.83-1.1-2.77-1.62-6.86-3.77-13.32-8.2-19.92-12.38-.93-.59-1.89-1.15-2.79-1.8a6.53,6.53,0,0,0-2.93-1.18A82.47,82.47,0,0,0,142.82,146c-1.17,0-2.33.19-3.55.29.48.82,30.11,20.08,34.63,22.56.68-.58,1-1.47,1.76-2,5.16,1.33,9.6,6.49,9.18,10.72a6.73,6.73,0,0,1-4.36.86,12.1,12.1,0,0,1-6.83-2.65,17.38,17.38,0,0,1-2.44-2.09,9.29,9.29,0,0,1,.92-1.8,27.73,27.73,0,0,0,4.55,2.31,11.65,11.65,0,0,0,3.59,1.06,20.79,20.79,0,0,0-2.69-1.45c-6.9-3.78-13.43-8.16-20-12.4l-19.81-12.7a16.73,16.73,0,0,1-12.36,0c-14,8.55-27.43,18.18-41.91,26.17.29.47.79.09,1.12,0a21.2,21.2,0,0,0,4.87-2.18l1.3-.77a5,5,0,0,1,.93,1.68c-2.59,4-9.9,6.18-13.57,4a5.76,5.76,0,0,1,.66-3.63,12,12,0,0,1,4.16-4.93,27.12,27.12,0,0,1,4.26-2.23,23.39,23.39,0,0,1,1.87,2.15l35.14-22.56a12.6,12.6,0,0,0-2.65-.38,79.52,79.52,0,0,0-16,1,9.65,9.65,0,0,0-3.88,1.52c-6.59,4.2-13.06,8.61-19.84,12.53-2,1.14-4,2.23-6,3.39a20.57,20.57,0,0,0,7.76-3.26,6.86,6.86,0,0,1,.89,1.78C80.27,167.77,74,168.74,71,166.8a6.36,6.36,0,0,1,.9-4.11,13.22,13.22,0,0,1,6.48-5.9l1.71-.77a25.27,25.27,0,0,1,1.86,2.17l13.76-8.86a11.82,11.82,0,0,0-3.89.66c-1.62.45-3.22,1-4.83,1.43a2.58,2.58,0,0,1-1.59.16c-.61-.39-.54-1-.52-1.64.07-2,.18-4,.29-6.13-5.17,3.35-10.31,6.57-15.71,9.37,1.56.2,3-.36,7.18-2.83a6.72,6.72,0,0,1,1,1.74C73.17,157,66.8,157.94,64,156c-.4-4.16,3.76-9,9.19-10.71.69.57,1.09,1.44,1.79,2.07.19-.11.35-.19.51-.29l10-6.41.94-12.77c-7.95,4.94-15.46,10.24-23.57,14.6,2.6-.15,4.66-1.63,6.86-2.81a7.08,7.08,0,0,1,.9,1.74c-4.2,4.8-10.44,5.85-13.59,3.93a6.14,6.14,0,0,1,.74-3.79,13.17,13.17,0,0,1,6.93-6.36,4,4,0,0,1,1.52-.58c.66.55,1.07,1.35,1.77,2.09l18.66-12,.63-8.51-7.8-5-10.88-7A4.91,4.91,0,0,0,68,104a.86.86,0,0,0-.49-.37l-.2-.09a1.14,1.14,0,0,0-.71-.45h0a29.07,29.07,0,0,0-2.71-1.81c-3,.55-4,.56-4.76,0a21.85,21.85,0,0,0,3.44-.85,9.59,9.59,0,0,0-1.81-1.14c-1.8.22-3.51,1-5.35.51,1.25-.65,2.7-.7,4-1.43l-2-1.26-1,.3a17.26,17.26,0,0,1-3.12.68C53,98.11,52.4,98.34,52.47,97.59Zm41,43.18a6,6,0,0,0,1.84.24,21.36,21.36,0,0,0,5.1-.66c5.4-1.24,10.8-2.42,16.38-2.48a30.76,30.76,0,0,1,13.19,2.35,4.56,4.56,0,0,0,4,0,33.23,33.23,0,0,1,19.24-1.55c3.22.65,6.37,1.57,9.62,2.09a9.91,9.91,0,0,0,4.55-.05c0-.69,0-1.36,0-2,0-11-.87-22-1.74-32.94-.64-8-1.37-16-1.53-24,0-1,0-2,0-3l-2,.16c-1.22.09-2.43.25-3.65.26a38.69,38.69,0,0,1-9.71-1.46,32.73,32.73,0,0,0-8.69-1.3,12.36,12.36,0,0,0-7.18,2.16c-.25,20.2,0,40.39-.66,60.52-.56.32-.92.31-1.24-.15.38-20.06-.21-40.15-.12-60.14a2.44,2.44,0,0,0-1.33-1.33,10.56,10.56,0,0,0-6.11-1.07,68.44,68.44,0,0,0-10.26,1.77,41.91,41.91,0,0,1-9.64,1.18,38.14,38.14,0,0,1-5.88-.8C96.21,99.29,94.89,120,93.43,140.77Zm72.65-59.7c-.21.23-.14.43-.13.61.09,6.23.4,12.44.82,18.65s.83,12.65,1.28,19c.51,7.24.95,14.48.85,21.75a4.9,4.9,0,0,1-.13,1.67,11.06,11.06,0,0,1-3.81.12,52.73,52.73,0,0,1-5.64-1c-5.76-1.26-11.55-2.2-17.48-1.69a30.2,30.2,0,0,0-7.87,1.38,6.05,6.05,0,0,1-4.16,0c-6.24-1.93-12.66-1.79-19.08-1.31A108.84,108.84,0,0,0,99,142.17a24.71,24.71,0,0,1-7,.46c1.25-21,2.69-41.87,3.81-62.76a1.34,1.34,0,0,0-1.32,0c-1.84,21.42-3.31,42.93-4.79,64.4a3.6,3.6,0,0,0,1.56.3,33.18,33.18,0,0,0,8.52-.85,86.12,86.12,0,0,1,14-2.12c5.83-.22,11.62,0,17.09,2.38a2.49,2.49,0,0,0,2.11-.14,26.54,26.54,0,0,1,10.58-2.15,76.85,76.85,0,0,1,15.89,1.86c3.33.64,6.65,1.42,10.09,1.28a2.87,2.87,0,0,0,1.76-.32c-1.22-21.1-2.59-42.24-3.61-63.4A4.56,4.56,0,0,0,166.07,81.07ZM188.5,71a13.81,13.81,0,0,0-1.43,4.75c.43-.18.75-.29.91-.7C188.08,73.72,188.44,72.39,188.5,71ZM67.6,81.8l-.27,0L68,86.06a1.65,1.65,0,0,0,.87.46A20.34,20.34,0,0,0,67.6,81.8ZM60.47,92.47l-.27.08.72,4.16c.25.24.45.45.83.41A18.78,18.78,0,0,0,60.47,92.47Zm141.64,4.18c.12-1.43.45-2.78.54-4.18a13.64,13.64,0,0,0-1.44,4.68A1.13,1.13,0,0,0,202.11,96.65ZM181,64.45c0-1.38.48-2.73.55-4.12-.76,1-1.66,4.48-1.28,4.64C180.52,64.93,180.71,64.75,181,64.45ZM65.58,84.4c-.29-1.6-.3-3.16-1.16-4.51,0,1.26.13,2.49.26,3.73C64.73,84.06,65,84.23,65.58,84.4Zm132.64-.48.45-4.27c-.68,1-1.47,4.49-1.16,4.7A1.34,1.34,0,0,0,198.22,83.92ZM82.94,65c-.44-1.68-.54-3.33-1.38-4.75l-.22.06.72,4.25A1.55,1.55,0,0,0,82.94,65ZM191.5,69.1a12.06,12.06,0,0,0-1.13,4.46,1.22,1.22,0,0,0,.94-.63C191.26,71.68,191.54,70.41,191.5,69.1Zm-7.27-6.73.39-4.07c-.7.87-1.48,4.43-1,4.56A1.56,1.56,0,0,0,184.23,62.37Zm-105.6-4-.29.06c.12,1.24.23,2.47.36,3.71,0,.44.35.63.84.73A15.65,15.65,0,0,0,78.63,58.37ZM204.57,95.09c.88-.57,1.27-2.42,1-4.55A12.63,12.63,0,0,0,204.57,95.09Zm-10.51-8.6a1.35,1.35,0,0,0,.94-.56c0-1.38.51-2.73.51-4.14A14.83,14.83,0,0,0,194.06,86.5ZM71.32,69l.41,4.13a1.48,1.48,0,0,0,.76.45A7.89,7.89,0,0,0,71.32,69Zm4.57,6.71A13.69,13.69,0,0,0,74.47,71c0,1.41.49,2.74.48,4A1.3,1.3,0,0,0,75.89,75.69ZM58.34,95c0-1.85-.48-3.81-1.14-4.42l.39,3.95A1.09,1.09,0,0,0,58.34,95ZM69.39,71.43a33.22,33.22,0,0,0-.48-3.95h-.27v3.64C68.79,71.21,68.93,71.53,69.39,71.43Zm117.8-14.64c-.61,1.29-.33,2.69-.64,4a1,1,0,0,0,.88-.58C187.25,59.15,187.42,58,187.19,56.79Zm14.14,21.53-.28,0a24.68,24.68,0,0,0-.44,4.21c.36-.38.69-.4.71-.73Zm7.1,14.32V89a9.68,9.68,0,0,0-.65,4C208.17,93,208.3,92.74,208.43,92.64ZM75.81,56.84a21.34,21.34,0,0,0-.27,3.47.84.84,0,0,0,.79.46A13.16,13.16,0,0,0,75.81,56.84ZM71.94,88.43a11.49,11.49,0,0,0-1.54-4.1C70.94,87.7,71.07,88,71.94,88.43ZM194.31,67.28c-.6,1.16-.85,4.11-.46,4.18a.85.85,0,0,0,.58-.58C194.28,69.81,194.41,68.66,194.31,67.28ZM85.78,66.92a7.29,7.29,0,0,0-1.27-3.75C85,64.42,84.68,65.93,85.78,66.92ZM198.3,99.11c1.19-1,.83-2.57,1.35-3.82A7.34,7.34,0,0,0,198.3,99.11ZM191,88.47c1.06-.26.82-1.15,1-1.78s.33-1.38.48-2.07A8.87,8.87,0,0,0,191,88.47ZM64.64,99.1a7.43,7.43,0,0,0-1.35-3.84C63.85,96.5,63.5,98.06,64.64,99.1ZM177.18,66.95c1-1.07.85-2.54,1.29-3.8A7.23,7.23,0,0,0,177.18,66.95ZM78.8,77.68a6.51,6.51,0,0,0-1.41-3.86C78,75,77.62,76.63,78.8,77.68Zm106.75-3.84a7.25,7.25,0,0,0-1.47,4.08C185.35,76.67,184.93,75.07,185.55,73.83ZM62.32,82.3a21.78,21.78,0,0,0-.44-4l-.26,0v3.62A1.1,1.1,0,0,0,62.32,82.3ZM55.09,92.93c.17-1.63-.09-3.42-.63-4v3.61C54.61,92.75,54.78,93,55.09,92.93Z"/><path class="cls-3" d="M178.56,34.56a7.26,7.26,0,0,1,4.71-1c3.51.52,5.21,3.51,3.82,6.76a5.62,5.62,0,0,1-2.22,2.64c-1.63-2.68-4-3.52-7-2.92a7,7,0,0,0-5.61,4.46,2.91,2.91,0,0,1-2.88,4c-1.22,2.08-2.29,4.28-3.76,6.33a11.14,11.14,0,0,1,.26,3.12,6.1,6.1,0,0,1-.75,2.5,8.39,8.39,0,0,0-.9,3.8c1.33,1.66,1.15,2.74-.66,3.84a17.9,17.9,0,0,1-6.17,2,128.08,128.08,0,0,1-19.61,1.63q-9.05.26-18.09-.28a96.8,96.8,0,0,1-17.92-2.27,12.3,12.3,0,0,1-3.31-1.25c-1.7-1-1.84-2-.45-3.51a10.07,10.07,0,0,0-.76-3.94c-.83-1.7-.79-2.78-.16-5.28-1.48-2.23-2.86-4.56-4.15-6.93a2.07,2.07,0,0,0-.82-.76,2.47,2.47,0,0,1-1.26-1.7c-.37-2.3-2-3.65-3.74-4.81a7.69,7.69,0,0,0-4.23-1.25A5.41,5.41,0,0,0,78,42.23a4.71,4.71,0,0,1-2.4-5.13,4.49,4.49,0,0,1,4.15-3.51c1.35-.08,2.59-.13,5,1.73a17.39,17.39,0,0,0-2.49-4.25,10.41,10.41,0,0,1,7.59,1c2.32,1.42,3.41,3.7,4.23,6.49C95.29,36,97,34.53,99.84,34.74c-.07,1.13-.44,2.22.07,3.36.44-.56.81-1.09,1.24-1.56a3.5,3.5,0,0,1,4.34-1,7.25,7.25,0,0,1,4.1,4.24,3.24,3.24,0,0,1-2.76,4.62c-.68.1-1.36.16-2.12.24.47.94,1.5,1,2.44,1.55-3.2,2.47-6.65,2-10.14,1.33,3.11,4.3,12.84,5.13,16.24-2A10.78,10.78,0,0,0,124,47.6a7.9,7.9,0,0,0,5.06-4.52A18.69,18.69,0,0,1,124,44.77a15.56,15.56,0,0,1-5.3-.06c.33-.56.87-.87,1.06-1.48-2.47.32-5,.94-6.41-2a6,6,0,0,1,1-6.63c2.2-2,4.43-1.07,6.64.13-.18-.91-.18-.91-1.38-2,.86-.83,1.17-.89,3.33-.68-2-3.23-1.29-5.93,1.83-7.16.62.82.45,2.1,1.47,2.69l.12.15c.11-.08.09-.18,0-.27-.16-.7-.37-1.4-.49-2.12-.48-2.92.93-5,3.83-5.47a9,9,0,0,1,4,.15,4.3,4.3,0,0,1,3.24,4.86,18.17,18.17,0,0,1-.66,2.78c1.26-.62,1.26-1.83,1.77-2.7,2.85.59,3.68,3.52,1.94,6.94h1.66a2.54,2.54,0,0,1,1.63.63c-.62.63-1.52,1-1.65,2.09a3.36,3.36,0,0,0,1.06-.62,5,5,0,0,1,4.5-.53A4.64,4.64,0,0,1,150,38.44c0,.15,0,.3-.05.46-.29,3.85-2.43,4.86-5.84,4.49a5.34,5.34,0,0,0-1.35-.16c.13.63.73.82,1,1.26-1.66.9-5.63.42-9.9-1.23a5.84,5.84,0,0,0,2.17,3c3,2.26,6.35,2.32,9.78,1.07a12.12,12.12,0,0,0,3.33-2c1.86,3.86,5.09,5.4,9.11,5.4a9.81,9.81,0,0,0,7.44-3.24c-3.71.7-7.15,1-10.41-1.32.9-.53,1.78-.75,2.33-1.54l-1.52-.26A3.43,3.43,0,0,1,153,40.33a6,6,0,0,1,6.16-5A3.57,3.57,0,0,1,162,37.24c.23.38.43.76.71,1.26a8.91,8.91,0,0,0,.54-3.67c2.65-.21,4.32,1,5.31,3.55.86-3,2.16-5.4,4.92-6.66a11.21,11.21,0,0,1,7.14-.55,16.79,16.79,0,0,0-2.27,3.23c-.06.11-.21.21,0,.33A.24.24,0,0,0,178.56,34.56ZM101.75,66.08a4.25,4.25,0,0,0,2.61,1.23,85.84,85.84,0,0,0,15.21,1.8q9.26.51,18.54.31a126.34,126.34,0,0,0,17.11-1.23,16.17,16.17,0,0,0,4.3-1.16c.61-.28,1.26-.59,1.32-1.42a2.64,2.64,0,0,0-1.7-1.08A28.48,28.48,0,0,0,154,63.4a165.07,165.07,0,0,0-22.83-1.52,127,127,0,0,0-20.32,1.33A37.11,37.11,0,0,0,103.19,65C102.63,65.19,102,65.35,101.75,66.08ZM131,56.33l4.5-3.17c-1.65-1.14-2.89-2.45-4.33-3.55l-4.24,3.25C128.22,54.14,129.6,55.07,131,56.33Zm46.53-19c3.11-.13,5.85.35,7.6,3.17,1.54-2.26.73-4.73-1.68-5.52A5.05,5.05,0,0,0,177.52,37.29ZM85,37.52a4.68,4.68,0,0,0-6.2-2.3,3.31,3.31,0,0,0-1.12,5.11C79.51,37.88,82.12,37.35,85,37.52Zm58.92,18.13c1.81,1,4,.53,5.94,1.1a2.65,2.65,0,0,0,.89-.62,4.71,4.71,0,0,0,.27-1.81c-.18-.31-.36-.6-.55-.66L145,52.89a2.39,2.39,0,0,0-.86.54A6.79,6.79,0,0,0,143.92,55.65Zm-31.83,1.06c1.66-.2,3.24-.41,4.83-.57a1.43,1.43,0,0,0,1.28-.82,5.94,5.94,0,0,0-.27-1.9,2.61,2.61,0,0,0-.88-.54l-2.34.35c-.83.12-1.66.25-2.49.31a1.27,1.27,0,0,0-1.14.77C111.14,56,111.14,56,112.09,56.71ZM163,60.21a4,4,0,0,0,.83-4.76,24.12,24.12,0,0,0-5.36,1c-.18.1-.26.26-.23.62A47.5,47.5,0,0,0,163,60.21Zm-63.76.5,4.9-3.68-.07-.36c-1.84-.3-3.65-.74-5.49-.9A4.07,4.07,0,0,0,99.28,60.7Zm27.5-36.27c.37-.34.64-.6.91-.84,1.44-1.24,2.31-1.15,3.4.33,0,0,.07,0,.24.07a2,2,0,0,1,2.16-1.36c1,.14,1.56.92,2.22,1.73-.09-1.71-.64-2.49-2-3a6.94,6.94,0,0,0-4.82.06A3,3,0,0,0,126.78,24.44Zm-8.92,10.17c-1.9-.09-3,.66-3.42,2.43a5.71,5.71,0,0,0,.15,3.48,3,3,0,0,0,3.17,1.92,5.7,5.7,0,0,1-1.49-1.59,1.2,1.2,0,0,1,.67-1.91c.2-.09.46-.09.5-.39C115.56,37.34,115.39,36.31,117.86,34.61Zm27.42,3.7c0,.28.19.32.32.39,1.29.61,1.48,1.39.57,2.48A13.46,13.46,0,0,1,145,42.26a3,3,0,0,0,3.19-2.14,6.19,6.19,0,0,0,0-3.61,2.54,2.54,0,0,0-3.36-1.84C147.17,35.91,147.3,37,145.28,38.31Zm-43-1.11c1,0,1.75-.07,2.27.59s-.06,1.43-.2,2.19c1,0,2-.27,2.66.69s.16,1.8-.22,2.72A2.32,2.32,0,0,0,108.11,40,7.61,7.61,0,0,0,105,36.7C104.1,36.16,103.22,36.36,102.23,37.19Zm58.19,0a2.57,2.57,0,0,0-1.94-.61c-1.8.14-4.13,2.68-4.12,4.47a1.87,1.87,0,0,0,1.74,2,2.26,2.26,0,0,1-.31-2.56c.59-1,1.64-.61,2.59-.59C157.54,37.91,157.91,37.38,160.42,37.16Zm-30.52,1.76a2.37,2.37,0,0,0,.37,1.33,1.39,1.39,0,0,0,1.43.73,1.31,1.31,0,0,0,1.18-.94,3.08,3.08,0,0,0,.23-1.23A1.83,1.83,0,0,0,131.46,37C130.58,36.93,129.91,37.73,129.89,38.93Zm2.11-4.1c0-3.09-.07-6.27-.34-9.44h-.34l-.26,9.47C131.36,35.14,131.63,35.19,132,34.83Zm-13.3,3.45c3.1.2,6.18.63,9.33.6-.07-.54-.35-.63-.6-.64A59.92,59.92,0,0,0,118.71,38.28ZM92.35,43.67a1.8,1.8,0,0,0-.34,2.4,2,2,0,0,0,2.57.39A5,5,0,0,0,92.35,43.67ZM135,38.88c3-.09,5.9,0,8.94-.23-.17-.16-.22-.24-.28-.24-2.69-.15-5.38-.29-8.08-.25C135.25,38.16,134.95,38.21,135,38.88Zm35.65,5.37a3.33,3.33,0,0,0-2.18,2.82,1.91,1.91,0,0,0,2.42-.57A1.78,1.78,0,0,0,170.64,44.26ZM91.31,41.92c.25-2.24-1.63-6.19-3.44-7.16a14.73,14.73,0,0,1,2,3.5C90.36,39.4,90.45,40.71,91.31,41.92Zm33.12-11.56A13.88,13.88,0,0,0,128,35.5c.22.21.47.42.89,0C127.25,33.91,125.94,32.07,124.43,30.36ZM174.34,35c-1.52,1.36-3.22,5.31-2.84,6.75A46.31,46.31,0,0,1,174.34,35ZM86.18,33.14c1.11-.47,2.16.33,3.46.44A8.52,8.52,0,0,0,84.5,32l1.28,2.23C85.92,33.87,85.8,33.53,86.18,33.14ZM166.68,44l-6.54-3.06-.14.28c2.07,1.1,4.14,2.21,6.22,3.3C166.4,44.59,166.57,44.43,166.68,44Zm6.46-10.55c1.09,0,2.14-.8,3.15-.46.67.35.55.87.74,1.43.27-.91.92-1.48,1.13-2.38C176.29,32.11,174.55,32.29,173.13,33.42ZM102.59,41a66.84,66.84,0,0,0-6.61,3c.11.3.26.47.38.42A50.62,50.62,0,0,0,102.59,41Zm31-5.56c1.65-.31,4.64-4,4.42-5.24A29.19,29.19,0,0,1,133.58,35.47Zm-9.53-9c-.82.9-.82.9-.9,1.77a1.23,1.23,0,0,1,1.53-.6Zm14.64,0a2.9,2.9,0,0,0-.68,1.14c.82-.29,1.24.24,1.71.9A3.07,3.07,0,0,0,138.69,26.49Z"/><path class="cls-3" d="M149.55,204c.58,1,1.46,1.6,2,2.55-.51.47-1.08-.08-1.56.19.43.76,1.37,1.12,1.59,2-.2.39-.62.08-.86.41a11.48,11.48,0,0,1,.4,3c-1.11-.34-1.75-1.19-2.71-1.54l-.46.64c-.66-.43-.86-1.19-1.4-1.66-.41.17-.3.71-.75.93-.86-.28-1-1.35-1.76-1.83-1.95,2.54-4.77,3.2-7.74,3.56a27.59,27.59,0,0,1-12.11-.92,10.15,10.15,0,0,1-5.56-3.87c-.72.5-1,1.35-1.66,1.84-.53-.29-.22-.82-.51-1.22-.78,1.11-1,2.49-1.85,3.43-.58-.21-.39-.81-.8-1.09-1,.4-1.72,1.43-3,1.62,0-1.16.65-2.08.78-3.05-.33-.34-.74.08-1.07-.33.48-.8,1.37-1.32,1.87-2.16-.39-.17-.8.09-1.29-.3.28-1,1.14-1.68,1.6-2.6,0-.05-.06-.14-.11-.16-3.66-1.22-5.69-4-6.89-7.46a26.52,26.52,0,0,1-.94-13.89,11.48,11.48,0,0,1,.8-2.35c-.82-.48-1.81-.47-2.51-1.07.1-.63.8-.45,1-.93-.73-.38-1.62-.28-2.26-.57-.26-.38.06-.5.1-.72-.58-.81-1.6-1.24-2.14-2.28,1.09-.22,2.09,0,3-.22.32-.23-.06-.55.22-.8.69-.05,1.3.46,2.06.51.3-.39-.28-.78.08-1.32,1.27-.08,2.45.82,3.76.89,1.61-6.49,6.41-9.69,12.11-12a18.07,18.07,0,0,1,5.91-1.25,1.19,1.19,0,0,0,.7-.16c.24-.94-.1-2,.3-2.92.56,0,.64.55,1.09.62.18-.76-.33-1.46-.23-2.14.37-.35.59.11,1,0a16,16,0,0,1,1.39-3c.64,1,.81,2.09,1.3,3,.25.27.52-.2.79.13.17.58-.1,1.23,0,1.92.47,0,.69-.59,1.32-.54a19.85,19.85,0,0,1,.24,3.74c9,.15,15.75,3.69,18.91,12.76,1-.08,2-.68,3-.85.24.56-.22.93-.18,1.53l2-1c.46.27.12.7.34,1,1,.26,2.06-.17,3.12.33-.67.93-1.76,1.24-2.5,2-.1.31.36.39.28.71-.48.41-1.17.47-1.72.83.09.49.73.55.79,1.12-.75.59-1.8.37-2.61.86a.25.25,0,0,0,0,.31,8,8,0,0,1,2.31,5.7,22.27,22.27,0,0,1-4.49,14.35A11.53,11.53,0,0,1,149.55,204ZM131.6,175.41c-.68-.31-.65-.85-.61-1.39.11-1.6.14-3.21.12-4.81a16.35,16.35,0,0,0-.73-5.19,3.66,3.66,0,0,0-2.41-2.69,5,5,0,0,0-2.6.13,28.18,28.18,0,0,0-10.14,5.12,14.56,14.56,0,0,0-4.4,5c-1.4,2.86-.86,4.73,1.86,6.39a18.17,18.17,0,0,0,5.89,2.12c.87.18,1.85,0,2.57.69-.09,1-.42,1.26-1.3,1.06a16.19,16.19,0,0,1-2.18-.7c-2.21-.84-4.38-1.77-6.61-2.55a3.51,3.51,0,0,0-4.31,1.68,4.8,4.8,0,0,0-.7,1.8A25.7,25.7,0,0,0,109,198.61a7.63,7.63,0,0,0,2.55,2.75c2.9,1.83,5,1.48,7-.5a22.83,22.83,0,0,0,3.9-5.34,2,2,0,0,1,.76-1c1.05.09,1.32.54.75,1.34-.31.43-.69.81-1,1.22a21.57,21.57,0,0,0-3.42,5.25,4.11,4.11,0,0,0,1,4.91,9.37,9.37,0,0,0,2.84,1.9,19.64,19.64,0,0,0,6.78,1.5,26,26,0,0,0,9.19-.78c3.8-1.11,5.19-4.41,3.39-7.92a28.48,28.48,0,0,0-2.74-4.08,19.91,19.91,0,0,1-1.19-1.68c-.32-.53-.38-1.08.27-1.41.6.05.81.47,1,.87.58,1,1.13,2,1.76,2.94a11.94,11.94,0,0,0,3.81,4,3.7,3.7,0,0,0,3.92.05,8.35,8.35,0,0,0,2-1.65,19.52,19.52,0,0,0,4.4-8.57,21.38,21.38,0,0,0,.76-7.59c-.43-4.15-3.85-6-6.71-5.33a34.53,34.53,0,0,0-4.28,1.23c-1,.38-2,.86-2.95,1.25s-1.4,0-1.39-1a1.74,1.74,0,0,1,1-.45,20.45,20.45,0,0,0,3.53-.95,13.39,13.39,0,0,0,5-2.77,3.4,3.4,0,0,0,.94-4.34,10.81,10.81,0,0,0-1.52-2.55,22.49,22.49,0,0,0-6.87-5.78,16.55,16.55,0,0,0-6.7-2.18c-2.54-.22-5.3.75-4.77,4.69.33,2.45.35,4.95.51,7.42C132.55,174.78,132.38,175.28,131.6,175.41Z"/><path class="cls-3" d="M192.74,63.36l-2.2-1.81c.49-.24.5-.25,2,.81a12.11,12.11,0,0,1,2,1.4c-3.17,2.08-6.19,4.28-9.47,6.07A11.91,11.91,0,0,1,178,70.89c-.53-.05-1-.15-1.66-.24.38-.58.86-.29,1.24-.26a14,14,0,0,0,7-1.28,8.35,8.35,0,0,0,.78-.47,51.79,51.79,0,0,0,5.54-3.58h0a1.13,1.13,0,0,0,.73-.47.09.09,0,0,0,.12-.07,5.13,5.13,0,0,0,1.28-.79C193,63.46,192.9,63.39,192.74,63.36Z"/><path class="cls-3" d="M197.51,71.89c.18,0,.41,0,.54.08,1.17.77,2.32,1.56,3.6,2.44-1.66,1.11-3.23,2.17-4.81,3.21-1.18.77-2.38,1.51-3.56,2.28-3,1.95-6.29,2.06-9.68,1.49-.05,0-.09-.1-.23-.25,1.25-.21,2.44.09,3.61-.11a4.85,4.85,0,0,0,2.1-.39h0a2.68,2.68,0,0,0,1.57-.47,2.38,2.38,0,0,0,1.13-.5,55.52,55.52,0,0,0,6.44-4.08,9.77,9.77,0,0,0,1.92-1.25l-2-1.56c-.29-.23-.63-.42-.6-.87Z"/><path class="cls-3" d="M51.43,97.58a45.8,45.8,0,0,0,5.66,3.63,13.7,13.7,0,0,0,7.22,1.36c.35,0,.75-.24,1.08.13-.16.27-.51.09-.68.31-1.26,0-2.51.2-3.77.12a11,11,0,0,1-5.38-1.75c-2.64-1.69-5.24-3.43-7.86-5.14-.16-.1-.35-.17-.4-.38a12.67,12.67,0,0,1,4-2.4c-.71,1.08-1.88,1.49-2.64,2.39A26.43,26.43,0,0,0,51.43,97.58Z"/><path class="cls-3" d="M198.3,103l-.74-.27c.2-.38.54-.22.81-.2a14.16,14.16,0,0,0,9.69-2.63c1.14-.82,2.4-1.45,3.49-2.34.56-.35,1.25-.52,1.59-1.17l0,0c.5,0,.78-.32,1.21-.61l-2.61-2.07c.16-.45.4-.37.65-.21l3.29,2.24c0,.37-.29.42-.49.55q-3.66,2.42-7.34,4.82a11.76,11.76,0,0,1-7.69,2C199.52,103.06,198.91,103.05,198.3,103Z"/><path class="cls-3" d="M65.23,71.89c.27.37,0,.52-.27.71l-2.21,1.74c1.08.72,2.08,1.4,3.09,2.05,1.63,1,3.24,2.13,4.91,3.1a12.71,12.71,0,0,0,6.91,1.6c.68,0,1.36,0,2,0l0,0-.33.43c-1.64,0-3.25.36-4.9.13a11.51,11.51,0,0,1-4.3-1.44c-2.89-1.71-5.65-3.61-8.44-5.48a.54.54,0,0,1-.28-.44C62.74,73.57,63.84,72.51,65.23,71.89Z"/><path class="cls-3" d="M71.67,61.36c.21,0,.43-.21.75.11-.73.83-1.75,1.35-2.63,2.2l3.37,2.22c.89.58,1.78,1.17,2.69,1.74.18.11.37.44.66.13l0,0c-.19.33.14.37.28.46a13.46,13.46,0,0,0,8.48,2.2c.41,0,.88-.26,1.35.16-.51.3-1.05.08-1.46.37-.46,0-.92,0-1.37,0a11.67,11.67,0,0,1-7.47-2c-2.39-1.57-4.79-3.12-7.17-4.7-.24-.16-.56-.25-.67-.64A33.3,33.3,0,0,0,71.67,61.36Z"/><path class="cls-3" d="M40.19,193.93a38.64,38.64,0,0,1,1.8-3.76c1.12.53,2.29.92,2.49,2.29a2.06,2.06,0,0,1-1,2.15C42.23,195.34,41.25,194.6,40.19,193.93Z"/><path class="cls-3" d="M24.28,175.86c1.13,1.21,1.94,2.33,1.53,3.9a1.49,1.49,0,0,1-1,1.25,1.37,1.37,0,0,1-1.38-.62c-.3-.34-.58-.7-.93-1.12A31.47,31.47,0,0,1,24.28,175.86Z"/><path class="cls-3" d="M205.18,199.55c.92,1,1.44,2,2.18,2.92a10.28,10.28,0,0,1-2.18.79Z"/><path class="cls-3" d="M230.52,186.39l2.06,2.58a11.39,11.39,0,0,1-1.74,1.44A22.5,22.5,0,0,1,230.52,186.39Z"/><path class="cls-3" d="M169,228.47a3.68,3.68,0,0,1,1.72-.94,1.32,1.32,0,0,1,1.94,1.22,2.88,2.88,0,0,1-1.25,2.78,10.4,10.4,0,0,1-1.86,1Z"/><path class="cls-3" d="M121.79,241.06a11.54,11.54,0,0,1,.71-3.93,3.83,3.83,0,0,1,.71-1.16,2.07,2.07,0,0,1,3.46.37,4.91,4.91,0,0,1,.58,2,10.54,10.54,0,0,1-.58,5.28,2.38,2.38,0,0,1-2.41,1.74,2.44,2.44,0,0,1-2.2-2A8.73,8.73,0,0,1,121.79,241.06Z"/><path class="cls-3" d="M91.49,229.77a10.34,10.34,0,0,1-1,4.42c-.91,1.72-2.58,1.82-3.71.22a4,4,0,0,1-.69-2.15,11,11,0,0,1,.82-4.7c.51-1.27,1.33-1.91,2.22-1.83A2.65,2.65,0,0,1,91.32,228,6.25,6.25,0,0,1,91.49,229.77Z"/><path class="cls-3" d="M97.68,100.6c-.44-.28-.81,0-1.12-.18.17-.77,1.2-1.24,3.51-1.59.43.38,0,.95.33,1.44a9.13,9.13,0,0,1,2.23-1.81c2.82,1.87,3,4.92,3.49,7.91a21.88,21.88,0,0,1,3.67-1.31c.57,1.65-.32,11.27-1.13,12.36-.66,0-.61-.51-.63-1-.05-2-.11-4-.17-6.06,0-.57,0-1.14-.11-1.71-.15-1.39-.16-1.39-1.68-1.79.21,3.11-1,5.81-2.35,8.48a7.76,7.76,0,0,1-1.37,2,1.6,1.6,0,0,1-2.06.43,1.68,1.68,0,0,0-2.32.46c-.52-.23-.36-.65-.35-1q.1-5.49.21-11c0-1.41.1-2.82.12-4.23A2.51,2.51,0,0,0,97.68,100.6Zm4.12.16a2.11,2.11,0,0,0-1.63,2.19c-.06,2.74-.08,5.49-.27,8.23-.1,1.52-.17,3-.26,4.66.71.07,1.12.6,1.62.92a2.3,2.3,0,0,0,1.22-1.08,8.35,8.35,0,0,0,1.29-3.63,23.71,23.71,0,0,0-.55-8.4A4.51,4.51,0,0,0,101.8,100.75Z"/><path class="cls-3" d="M134.9,117.78c-.27-5.7-.07-11.37-.43-17-.37-.47-1-.09-1.47-.57a8.61,8.61,0,0,1,3.54-1.48c.51.35.27.83.53,1.18a12.46,12.46,0,0,1,2-1.7,3.74,3.74,0,0,1,2.34,1.88,12.17,12.17,0,0,1,1.53,5,15,15,0,0,1-2,10.22,7.73,7.73,0,0,1-1.55,2,1.63,1.63,0,0,1-1.9.33A2.26,2.26,0,0,0,134.9,117.78Zm3.33-17.41c-1,.58-1.25.9-1.27,1.9,0,2.25-.08,4.5-.1,6.75s0,4.26,0,6.43c.61.12,1,.72,1.61,1a4.8,4.8,0,0,0,1.94-3.26,21.94,21.94,0,0,0-.48-10.63A2.86,2.86,0,0,0,138.23,100.37Z"/><path class="cls-3" d="M151,110.77a8,8,0,0,1-2.57,5.4,2,2,0,0,1-3.33-.33,7.79,7.79,0,0,1,1-10,2.16,2.16,0,0,1,3.45.38A7.88,7.88,0,0,1,151,110.77Zm-4.42-4.06c-2,1.38-1.09,7.18,1.26,8.42.95-.11,1.23-.84,1.3-1.61a9.33,9.33,0,0,0-1.41-6A1.35,1.35,0,0,0,146.58,106.7Z"/><path class="cls-3" d="M165,109.44c-1.26,1.28-3,1.93-4.56,2.83.53,3,2.36,3.58,4.73,1.6.32.16.16.37,0,.56a7.22,7.22,0,0,1-1.38,1.66,2.9,2.9,0,0,1-4.34-.41,6.25,6.25,0,0,1-1.19-5.07,8.53,8.53,0,0,1,3.37-5.49C163.35,105.31,164.87,107.24,165,109.44Zm-4.82,2.11c1.13-.62,2.28-1.06,2.38-2.37a2.19,2.19,0,0,0-1.35-2.3C160.09,108.22,160.06,109.74,160.22,111.55Z"/><path class="cls-3" d="M129.74,108.68a25.87,25.87,0,0,1-4.25,3.87c.17,1.08.44,2.13,1.58,2.56s2.1-.28,2.92-1.18c.3.5-.06.77-.23,1a3.39,3.39,0,0,1-3.51,1.86c-1.51-.21-2.14-1.35-2.54-2.63-1-3.27,0-6.08,2.11-8.58a1.12,1.12,0,0,1,1.53-.31A5.28,5.28,0,0,1,129.74,108.68Zm-4.42,3a6.35,6.35,0,0,0,2.24-3,3.1,3.1,0,0,0-1.43-1.89A7.38,7.38,0,0,0,125.33,111.67Z"/><path class="cls-3" d="M113.91,104.5l2.53,2a2.4,2.4,0,0,1-1.09,1.16c-1,0-1.5-1-2.24-1.45-.94,1.13-.9,2.06.16,2.86.64.48,1.35.86,2,1.3a2.49,2.49,0,0,1,1.16,3,8.3,8.3,0,0,1-.58,1.73,2.94,2.94,0,0,1-4.76,1.08,2.58,2.58,0,0,1-.81-.86l1.27-1.85c.67,1,.9,2.26,2.22,2.46a2.07,2.07,0,0,0,1.35-2c-.22-.78-.91-1-1.5-1.32a4.54,4.54,0,0,1-2.5-2.53,4.13,4.13,0,0,1,1.29-4.46A6.2,6.2,0,0,1,113.91,104.5Z"/><path class="cls-3" d="M155.45,105c.87.8,1.37,1.88,2.4,2.42-.61,1.17-1.13,1.58-1.76,1.34-.82-.31-1-1.25-1.57-1.8a2,2,0,0,0-.8,1.45,10.17,10.17,0,0,0,.56,4.95,3.68,3.68,0,0,0,.44.8c.83,1.21,1.79,1.28,2.82.22.15-.15.21-.42.51-.39a3.44,3.44,0,0,1-1.9,2.67,2.29,2.29,0,0,1-2.56-.36,5.07,5.07,0,0,1-1.48-2.53A7.89,7.89,0,0,1,155.45,105Z"/><path class="cls-3" d="M123.26,107.35a2.56,2.56,0,0,1-1.48,1.46c-1-.16-1.24-1.08-1.86-1.56a4.05,4.05,0,0,0-.82,2.48,8.88,8.88,0,0,0,.68,4.24c.65,1.36,2.23,1.66,2.93.29.09-.18.21-.41.48-.41-.29,2-1.62,3.23-3.27,3a3,3,0,0,1-2.35-2.24,7.15,7.15,0,0,1,.64-6.67,17.21,17.21,0,0,1,2.33-2.85C121.58,105.73,122,106.95,123.26,107.35Z"/><path class="cls-3" d="M109.47,99.61c.1,2.21-.26,3.55-1,4-.74-.8-.42-2.18-1.62-2.78C107.57,100.06,108.52,100,109.47,99.61Z"/><path class="cls-3" d="M107.49,66.19c.15.37.7.31.65.77a1.84,1.84,0,0,1-2.28-.68c.24-.8,1-1,1.65-1.2a25.73,25.73,0,0,1,4.69-1,158,158,0,0,1,26.41-.9,96.11,96.11,0,0,1,14.92,1.36,17.21,17.21,0,0,1,2.11.53,1.82,1.82,0,0,1,1.28.87c-.5,1.16-1.57,1.61-2.41,1,.07-.46.63-.4.84-.83a3.06,3.06,0,0,0-1.71-.67,50.56,50.56,0,0,0-6.81-.88A224.58,224.58,0,0,0,122,64.16a76,76,0,0,0-12.51,1.28A4.88,4.88,0,0,0,107.49,66.19Z"/><path class="cls-3" d="M114.78,195.32c-.52-.78,0-1.09.32-1.41a27.09,27.09,0,0,1,4.33-3.56c.24-.17.56-.25.72-.65-1.8.37-3.55.73-5.3,1.07-.82.16-1.66.27-2.48.41-.4.07-.76.1-1-.41.27-.57.87-.46,1.35-.55a35.93,35.93,0,0,0,6.42-1.49l-1.84-.6a17.79,17.79,0,0,1-3.66-1.61c-.41-.24-.91-.43-1-1.06.52-.36.85.09,1.21.28a19.71,19.71,0,0,0,7.44,2.48c.15,0,.29,0,.56,0a14.09,14.09,0,0,1,.45-5.44,10.11,10.11,0,0,1,3.21-4.36c-2.64-1.73-5.56-2.67-8.42-4,.59-.74,1.17-.37,1.64-.22a27.37,27.37,0,0,1,4.49,2,4.44,4.44,0,0,0,1.28.53c-.9-1.14-1.81-2.28-2.7-3.43-.7-.91-1.39-1.82-2.05-2.75-.37-.52-.34-.54.1-1.36,1.73,2.4,3.46,4.68,5.33,6.89a22.32,22.32,0,0,1-.7-4,8,8,0,0,1,.35-3.95c.69.35.52.82.49,1.26a19.69,19.69,0,0,0,.75,7.36,1.27,1.27,0,0,0,.47.84,9.06,9.06,0,0,1,4.64-1.18,14.89,14.89,0,0,1,4.88,1c.75-2.74.62-5.57,1.06-8.37.77.28.7.82.69,1.29a29.94,29.94,0,0,1-.51,5,3.09,3.09,0,0,0-.1,1.32,24.12,24.12,0,0,0,1.78-2.55c.85-1.18,1.64-2.39,2.49-3.57.25-.36.5-.8,1.08-.68.45.47,0,.75-.24,1.06-1.53,2-2.89,4.11-4.25,6.25a28.5,28.5,0,0,1,3.69-1.88,15,15,0,0,1,2.73-.84c.34-.06.68-.17,1,.22-.1.65-.71.58-1.13.69a21,21,0,0,0-6.61,3c2.68,2.69,4.09,5.79,3,9.7,3-.1,5.8-1.14,8.7-1.7,0,.82-.51.89-.93,1a27.32,27.32,0,0,1-5,1.1,5,5,0,0,0-1.35.34l5.95,1.73c.55.16,1.1.33,1.63.53s.77.37.46,1.07c-2.66-.85-5.32-1.71-8.19-2.43,4.61,4.84,4.79,5.09,4.68,6.28-.63.12-.72-.42-1-.77a20.85,20.85,0,0,0-4.91-5.39c-.15-.11-.32-.2-.6-.36-1.38,3.74-4.44,5.13-8.12,5.69.92,3.06,2.84,5.5,4.43,8.15-.71.44-.94-.08-1.19-.39a22.19,22.19,0,0,1-2.21-3.6c-.35-.66-.67-1.35-1.08-2a28.93,28.93,0,0,0,.06,4.23c0,1.15,0,2.29,0,3.44,0,.48-.09.91-.87,1,0-2.89,0-5.72-.26-8.83a19.49,19.49,0,0,1-2.49,4.84c-.34.46-.68.92-1.06,1.35-.24.27-.47.64-1,.42-.23-.52.23-.8.49-1.13a20.28,20.28,0,0,0,3.86-7.44c-3.66-.76-7-2-8.58-6A54.45,54.45,0,0,0,114.78,195.32Zm19.91-3.11a1.37,1.37,0,0,0,1.71.7,2.07,2.07,0,0,0,1-1.55,1.72,1.72,0,0,0-1.65-.91A2.07,2.07,0,0,0,134.69,192.21Zm-3.37-7.83a1.31,1.31,0,0,0-1.27,1.21,1.35,1.35,0,1,0,2.69.15A1.47,1.47,0,0,0,131.32,184.38Zm-3.73-.9c-1.42.85-1.46,2-.13,2.74a1.36,1.36,0,0,0,1.27-1.34A1.27,1.27,0,0,0,127.59,183.48Zm-.45,5.33a2,2,0,0,0,1.6.86,1.24,1.24,0,0,0,.91-1.38,1.16,1.16,0,0,0-1.18-1C127.41,187.71,127.35,187.77,127.14,188.81Zm5,4.22a2.28,2.28,0,0,0-1.76-1.38,1.28,1.28,0,0,0-.63,1.65,1.1,1.1,0,0,0,1.09.85A1.26,1.26,0,0,0,132.18,193Zm2-11.06c-.77.62-1,1.18-.7,1.8a1.11,1.11,0,0,0,1.27.72,1.1,1.1,0,0,0,.86-1.07C135.64,182.73,135.11,182.22,134.13,182Zm-6.25,9.57c-.42-.75-1-1.18-1.8-1a1,1,0,0,0-.75,1.14,1.12,1.12,0,0,0,1,1.05C127.16,192.82,127.65,192.37,127.87,191.53ZM124,184.12c1.06.22,1.29.05,1.73-1.2-.37-1-.88-1.29-1.53-1S123.32,183,124,184.12Zm14.57,5a1.41,1.41,0,0,0,1.08-1.58,1.14,1.14,0,0,0-1.18-1C137.1,187.37,137.13,188.32,138.52,189.13Zm-8.17-8.31a1.19,1.19,0,0,0-1,1.27c0,.69.55,1,1.22,1.17a1.22,1.22,0,0,0,1-1.3C131.51,181.25,131,180.92,130.36,180.82Zm2.34,10.28a1.25,1.25,0,0,0,.88-1.57,1,1,0,0,0-1.1-.82c-.74,0-1,.57-1.11,1.21A1.45,1.45,0,0,0,132.7,191.1Zm-7.43-3.37a1.25,1.25,0,0,0-1.24-1.15c-.88.5-1.11.87-.92,1.46s.68.87,1.65.7A1.65,1.65,0,0,0,125.26,187.73Zm10,.89a1.21,1.21,0,0,0,.91-1.53,1,1,0,0,0-1.2-.84,1,1,0,0,0-1,1C133.87,187.9,134.16,188.24,135.22,188.62Zm2.83-6.65a1.39,1.39,0,0,0-.8.74c0,1.33.39,1.65,1.63,1.39C139.71,182.9,139.45,182.22,138.05,182Zm-1.69-2.25a1.08,1.08,0,1,0-2.14-.19,1.23,1.23,0,0,0,1.06,1.27A1.06,1.06,0,0,0,136.36,179.72ZM127.17,181c.86-.5,1.14-1,.88-1.61a1,1,0,0,0-1.08-.69,1,1,0,0,0-1,1.05A1.21,1.21,0,0,0,127.17,181Zm4.28-1.16a1.18,1.18,0,0,0,1-1.5,1.06,1.06,0,0,0-2.06,0C130.17,179,130.46,179.37,131.44,179.84Z"/><path class="cls-3" d="M121.73,192.25a.51.51,0,0,1,0,.61c-.85,1.58-1.67,3.17-2.57,4.71a5.1,5.1,0,0,1-3.27,2.5,3.05,3.05,0,0,1-3.84-2c-.41-1-.64-2.11-1-3.17-.42-1.4-.92-2.74-2.83-2.49-.07,0-.17-.13-.24-.2-.05-.4.27-.54.49-.73a2.61,2.61,0,0,0,.66-3.22c-.28-.67-.62-1.31-.92-2a11.94,11.94,0,0,1-.55-1.38,2.62,2.62,0,0,1,2-3.49,6.58,6.58,0,0,1,3.39.14,16.06,16.06,0,0,1,5.11,2.23c.35.23.81.42.83,1a1.78,1.78,0,0,1-1.05-.45,16.39,16.39,0,0,0-5.61-2.18,4.66,4.66,0,0,0-2.48.15,1.72,1.72,0,0,0-1.17,2.27,21.15,21.15,0,0,0,1.25,2.82c.67,1.53.75,3-.7,4.28,1.86.37,2.43,1.74,2.84,3.26a16.28,16.28,0,0,0,.75,2.52,2.4,2.4,0,0,0,3,1.5,4,4,0,0,0,2.75-1.87c.84-1.36,1.64-2.75,2.47-4.11C121.16,192.75,121.21,192.3,121.73,192.25Z"/><path class="cls-3" d="M153.24,192.76a4.49,4.49,0,0,1-.61-4.45c.21-.77.49-1.53.65-2.31.54-2.66-1-4-3.56-3.07a19.47,19.47,0,0,1-5.12,1.14,2.45,2.45,0,0,1-1.53-.24,4.18,4.18,0,0,1,1.89-.44,14.28,14.28,0,0,0,4.39-1.2,4.27,4.27,0,0,1,.64-.24c2.73-.83,4.62.71,4.21,3.53-.2,1.43-.62,2.83-.95,4.24-.28,1.21-.2,2.28,1,2.95.15.08.13.26.13.42-.15.37-.49.31-.78.34a2.91,2.91,0,0,0-2.7,2.4c-.24,1-.46,1.93-.79,2.87a2.67,2.67,0,0,1-3.52,1.84,4.54,4.54,0,0,1-1.65-.78,11.43,11.43,0,0,1-3.75-5.09,1.39,1.39,0,0,1-.11-1.13c.49.06.51.51.65.82a11.63,11.63,0,0,0,2.87,3.95,5.3,5.3,0,0,0,2.17,1.23,1.84,1.84,0,0,0,2.47-1.22,8.47,8.47,0,0,0,.44-1.54C150.14,194.8,150.72,193,153.24,192.76Z"/><path class="cls-3" d="M126.21,197.3c0,.47-.45.65-.72.93a9,9,0,0,0-2.75,5.15c-.27,2,.59,2.91,2.55,2.82,1,0,2-.18,3-.19a3.4,3.4,0,0,1,3.58,2.27c1-1.88,2.65-2.08,4.44-1.93a8.2,8.2,0,0,0,2.73,0,1.87,1.87,0,0,0,1.55-2.18,4.74,4.74,0,0,0-1.09-2.48c-.94-1.2-1.9-2.39-2.84-3.59-.24-.31-.62-.59-.48-1.11.33-.14.47.1.63.31,1.14,1.48,2.37,2.88,3.61,4.29a4.43,4.43,0,0,1,1.24,3,2.59,2.59,0,0,1-2.57,2.78c-1.18.06-2.36,0-3.55,0-1.58-.05-2.9.26-3.31,2.07,0,.09-.16.14-.22.2-.43,0-.51-.36-.61-.62-.66-1.66-2-2.07-3.61-2-.91.05-1.83.15-2.74.14-2.31,0-3.55-1.46-3.13-3.72a10.93,10.93,0,0,1,3.58-6C125.63,197.3,125.86,197.08,126.21,197.3Z"/><path class="cls-3" d="M121.47,179.15a40.32,40.32,0,0,0-5.59-1.46,5.89,5.89,0,0,1-3.09-1.64,2.59,2.59,0,0,1,.12-3.86,16,16,0,0,1,2.32-1.66A10.06,10.06,0,0,0,117,169.2a1.91,1.91,0,0,0,.58-2.37.56.56,0,0,1,0-.67c.45-.21.78.15,1.12.33a2.45,2.45,0,0,0,2.88-.3c.74-.6,1.42-1.27,2.13-1.91.87-.79,1.79-1.55,3.06-1.11A3.5,3.5,0,0,1,129,166a17.16,17.16,0,0,1-.16,6,4.66,4.66,0,0,1-.4,2.16c-.61-.69-.34-1.39-.28-2a34.28,34.28,0,0,0,.32-4,7.22,7.22,0,0,0-.45-2.47c-.72-1.87-2.33-2.22-3.76-.84-.47.45-.89.94-1.34,1.41-1.25,1.3-2.64,2-4.49.87,0,2-1.19,3-2.63,3.92a11.08,11.08,0,0,0-2,1.4,2.13,2.13,0,0,0,0,3.31,5.13,5.13,0,0,0,2.09,1.13c1.5.45,3,.76,4.5,1.31C120.88,178.37,121.34,178.46,121.47,179.15Z"/><path class="cls-3" d="M141.49,178.77a16.7,16.7,0,0,0,4.25-.94,9.05,9.05,0,0,0,3.21-2.14c1.13-1.25,1-2.32-.46-3.19-.68-.41-1.42-.74-2.13-1.11-1.81-.93-2.26-1.66-2.28-3.81-1.93.89-3.23-.25-4.54-1.37a9,9,0,0,0-2-1.48,2.08,2.08,0,0,0-3.06,1.38,7.06,7.06,0,0,0-.23,2.27c0,1.68.05,3.36.2,5,0,.32.14.69-.23.94-.41-.23-.35-.64-.38-1-.15-1.48-.29-3-.41-4.45a10.1,10.1,0,0,1,.16-2.85c.47-2.34,2.42-3.22,4.48-2a15.42,15.42,0,0,1,1.4,1c.43.32.83.68,1.25,1,1.26.94,2.53,1.73,3.88.29.61.29.37.69.33,1a2.66,2.66,0,0,0,1.6,3.19c.8.45,1.64.8,2.44,1.25,1.74,1,2.06,2.36.94,4a6,6,0,0,1-2.27,1.88,13.65,13.65,0,0,1-4.8,1.42A1.29,1.29,0,0,1,141.49,178.77Z"/></svg>