<svg id="Layer_1" data-name="Layer 1" xmlns="http://www.w3.org/2000/svg" viewBox="0 0 474.99 124.42"><defs><style>.cls-1{fill:#fff;}.cls-2{fill:#ffde14;}.cls-3{fill:#d8356e;}</style></defs><title>varsity-white</title><path class="cls-1" d="M27.87,52.13H15.77L0,.29H11.81l10,39.39L32.11.29H43.64Z"/><path class="cls-1" d="M81.79,52.13H71.06L87.77.29h12.1l16.71,51.84H105.41L102,40.47H85.25Zm6.34-21.46H99.22l-5.47-19Z"/><path class="cls-1" d="M174.53,52.13l-8.35-19.23h-8.35V52.13H147.46V.29h26.43c6,0,10.23,4.18,10.23,10.23V22.68c0,4.9-2.74,8.57-7.06,9.79l8.64,19.66Zm-.79-39.6a2.2,2.2,0,0,0-2.45-2.45H157.83V23.26h13.46a2.2,2.2,0,0,0,2.45-2.45Z"/><path class="cls-1" d="M244.55,12.24a2.2,2.2,0,0,0-2.45-2.45H231.73a2.2,2.2,0,0,0-2.45,2.45v4.9c0,1.58.86,2.09,2.45,2.45l13.39,2.88c5.62,1.22,10.37,4.61,10.37,10.37V42.2c0,6-4.18,10.23-10.23,10.23H229.14c-6,0-10.22-4.18-10.22-10.23V35.57H229v4.61a2.2,2.2,0,0,0,2.45,2.45h11.23a2.2,2.2,0,0,0,2.45-2.45V34.71c0-1.58-.86-2.09-2.45-2.45l-13.39-2.88c-5.62-1.22-10.37-4.61-10.37-10.37V10.22c0-6,4.18-10.22,10.22-10.22h15.27c6,0,10.22,4.18,10.22,10.22v6H244.55Z"/><path class="cls-1" d="M304,.29h10.37V52.13H304Z"/><path class="cls-1" d="M387.22,9.94v42.2H376.85V9.94H363.31V.29h37.44V9.94Z"/><path class="cls-1" d="M448.63,52.13V34.2L432.65.29H444l9.79,22.18L463.61.29H475L459,34.2V52.13Z"/><path class="cls-2" d="M230.15,88H220.07V82.37A10.33,10.33,0,0,1,230.44,72h14.69A10.33,10.33,0,0,1,255.5,82.37v9.07c0,5.76-4.9,8.5-10.37,10.37l-12.39,4.32c-1.87.65-2.88,1-2.88,2.88v5.33h25.78v9.79H219.49V106.71c0-5.76,4.9-8.5,10.37-10.37L242.25,92c1.87-.65,2.88-1,2.88-2.88V84.67a2.59,2.59,0,0,0-2.88-2.88H233a2.59,2.59,0,0,0-2.88,2.88Z"/><path class="cls-3" d="M301.07,124.42c-6,0-10.23-4.18-10.23-10.22v-32c0-6,4.18-10.22,10.23-10.22h16.2c6,0,10.22,4.18,10.22,10.22v32c0,6-4.18,10.22-10.22,10.22Zm.14-12.24a2.2,2.2,0,0,0,2.45,2.45h11a2.2,2.2,0,0,0,2.45-2.45V84.24a2.2,2.2,0,0,0-2.45-2.45h-11a2.2,2.2,0,0,0-2.45,2.45Z"/><path class="cls-2" d="M378.76,83.09l-9.43,3.31V77.76l11.59-5.47h8.21v51.84H378.76Z"/><path class="cls-3" d="M447.88,124.13H436.5l23.33-42.05H435.21V72.29h37v7.92Z"/></svg>