<svg id="Layer_1" data-name="Layer 1" xmlns="http://www.w3.org/2000/svg" viewBox="0 0 643.54 231.12"><defs><style>.cls-1{fill:#fff;}.cls-2{fill:#ffde14;}.cls-3{fill:#d8356e;}</style></defs><title>varsity-live-white</title><path class="cls-1" d="M29.16,101.55H17.07L1.3,49.7H13.1l10,39.39L33.41,49.7H44.93Z"/><path class="cls-1" d="M83.09,101.55H72.36L89.07,49.7h12.1l16.71,51.84H106.71l-3.38-11.67H86.55Zm6.34-21.46h11.09L95,61.08Z"/><path class="cls-1" d="M175.83,101.55l-8.35-19.23h-8.35v19.23H148.75V49.7h26.43c6,0,10.23,4.18,10.23,10.23V72.1c0,4.9-2.74,8.57-7.06,9.79L187,101.55ZM175,61.94a2.2,2.2,0,0,0-2.45-2.45H159.12V72.67h13.46A2.2,2.2,0,0,0,175,70.22Z"/><path class="cls-1" d="M245.85,61.65a2.2,2.2,0,0,0-2.45-2.45H233a2.2,2.2,0,0,0-2.45,2.45v4.9c0,1.58.86,2.09,2.45,2.45l13.39,2.88c5.62,1.22,10.37,4.61,10.37,10.37v9.36c0,6-4.18,10.23-10.23,10.23H230.44c-6,0-10.22-4.18-10.22-10.23V85h10.08v4.61A2.2,2.2,0,0,0,232.74,92H244a2.2,2.2,0,0,0,2.45-2.45V84.12c0-1.58-.86-2.09-2.45-2.45l-13.39-2.88c-5.62-1.22-10.37-4.61-10.37-10.37V59.64c0-6,4.18-10.22,10.22-10.22H245.7c6,0,10.22,4.18,10.22,10.22v6H245.85Z"/><path class="cls-1" d="M305.28,49.7h10.37v51.84H305.28Z"/><path class="cls-1" d="M388.51,59.35v42.2H378.15V59.35H364.61V49.7h37.44v9.65Z"/><path class="cls-1" d="M449.93,101.55V83.62l-16-33.92h11.38l9.79,22.18,9.79-22.18h11.38l-16,33.92v17.93Z"/><path class="cls-2" d="M235.33,121.7v42.05h21.75v9.79H225V121.7Z"/><path class="cls-3" d="M305.28,121.7h10.37v51.84H305.28Z"/><path class="cls-2" d="M389.16,173.55h-12.1L361.3,121.7H373.1l10,39.39,10.3-39.39h11.52Z"/><path class="cls-3" d="M472.54,121.7v9.79H449v10.66h19.08v9.79H449v11.81h23.55v9.79H438.62V121.7Z"/><polygon class="cls-1" points="465.04 0 458.04 39.7 468.19 39.7 472.27 16.57 623.77 114.39 437.68 212.73 442.83 183.54 432.67 183.54 424.28 231.12 643.54 115.25 465.04 0"/></svg>